<?xml version="1.0" standalone="no"?> <!DOCTYPE svg PUBLIC "-//W3C//DTD SVG 1.0//EN" "http://www.w3.org/TR/2001/REC-SVG-20010904/DTD/svg10.dtd" > <svg xmlns="http://www.w3.org/2000/svg" width="100%" height="100%">
<defs >
<font id="SC" horiz-adv-x="490" ><font-face
    font-family="SC Sans Web"
    units-per-em="1000"
    panose-1="2 13 2 4 3 5 2 5 2 3"
    ascent="818"
    descent="-182"
    alphabetic="0" />
<missing-glyph horiz-adv-x="500" />
<glyph unicode=" " glyph-name="space" horiz-adv-x="164" />
<glyph unicode="!" glyph-name="exclam" horiz-adv-x="190" d="M105 175H83L78 458V715H111V458L105 175ZM113 0H77V66H113V0Z" />
<glyph unicode="&quot;" glyph-name="quotedbl" horiz-adv-x="247" d="M81 514H51V715H81V514ZM196 514H166V715H196V514Z" />
<glyph unicode="#" glyph-name="numbersign" horiz-adv-x="551" d="M77 469H182L214 684H243L210 469H374L407 684H435L403 469H511L506 443H399L371 255H477L473 228H367L333 0H304L338 228H175L141 0H112L146 228H40L45 255H149L178 443H72L77 469ZM178 255H342L370
443H207L178 255Z" />
<glyph unicode="$" glyph-name="dollar" horiz-adv-x="562" d="M295 701Q389 696 440 651T502 523H472Q462 596 417 632T295 673V378Q349 369 391 357T462 323T507 271T523 191Q523 149 506 114T459 55T386 16T295 1V-83H269V1Q211 4 167 21T93 68T47 136T28 222H58Q63
138 116 86T269 28V354Q216 364 176 377T110 409T70 457T57 526Q57 565 72 596T116 651T183 687T269 701V758H295V701ZM492 189Q492 227 481 253T446 297T385 327T295 349V28Q336 29 372 40T434 72T476 122T492 189ZM88 527Q88 495 98 472T130 432T186 404T269
384V674Q186 672 137 632T88 527Z" />
<glyph unicode="%" glyph-name="percent" horiz-adv-x="729" d="M560 685H590L176 0H146L560 685ZM178 321Q115 321 76 370T36 505Q36 593 76 641T178 689Q208 689 233 677T277 642T306 584T317 505Q317 419 279 370T178 321ZM178 346Q228 346 258 386T288 505Q288
583 257 623T178 664Q130 664 98 624T66 505Q66 428 97 387T178 346ZM553 -10Q490 -10 451 39T412 174Q412 217 423 251T452 309T497 345T553 358Q613 358 652 311T692 174Q692 88 654 39T553 -10ZM553 15Q604 15 633 55T663 174Q663 252 632 292T553 333Q505 333
473 293T441 174Q441 97 472 56T553 15Z" />
<glyph unicode="&amp;" glyph-name="ampersand" horiz-adv-x="575" d="M126 568Q126 596 136 620T164 663T208 691T266 702Q293 702 317 693T360 667T389 624T400 565Q400 533 390 509T361 463T316 424T257 386L448 149Q485 223 488 319H519Q517 265 505 216T468
124L568 0H531L452 98Q417 49 367 20T250 -10Q208 -10 171 2T105 37T60 94T43 170Q43 213 56 245T93 303T148 350T214 392L201 409Q165 453 146 488T126 568ZM251 18Q310 18 356 46T433 122L231 371Q201 353 173 334T123 292T88 239T75 170Q75 136 88 108T125 60T181
29T251 18ZM158 567Q158 529 176 497T222 430L240 407Q305 446 337 481T369 566Q369 617 340 645T266 674Q216 674 187 645T158 567Z" />
<glyph unicode="&apos;" glyph-name="quotesingle" horiz-adv-x="132" d="M81 514H51V715H81V514Z" />
<glyph unicode="(" glyph-name="parenleft" horiz-adv-x="266" d="M237 754Q212 714 190 668T151 568T124 457T114 335Q114 198 147 88T237 -118H208Q180 -72 157 -22T116 83T90 201T80 335Q80 401 90 459T118 570T159 669T208 754H237Z" />
<glyph unicode=")" glyph-name="parenright" horiz-adv-x="266" d="M58 754Q85 712 108 664T148 563T176 449T186 320Q186 183 149 76T58 -118H29Q55 -74 77 -25T116 78T142 193T152 320Q152 451 118 558T29 754H58Z" />
<glyph unicode="*" glyph-name="asterisk" horiz-adv-x="360" d="M166 588V710H193V588L302 625L310 603L202 565L272 467L252 453L180 554L109 453L89 467L158 565L50 603L58 625L166 588Z" />
<glyph unicode="+" glyph-name="plus" horiz-adv-x="540" d="M62 341H255V542H285V341H478V312H285V109H255V312H62V341Z" />
<glyph unicode="," glyph-name="comma" horiz-adv-x="138" d="M32 -86Q51 -73 57 -53T64 -3V0H50V66H87V-1Q87 -39 76 -66T32 -108V-86Z" />
<glyph unicode="-" glyph-name="hyphen" horiz-adv-x="321" d="M44 292H277V264H44V292Z" />
<glyph unicode="." glyph-name="period" horiz-adv-x="139" d="M88 0H51V66H88V0Z" />
<glyph unicode="/" glyph-name="slash" horiz-adv-x="372" d="M56 0H24L316 715H348L56 0Z" />
<glyph unicode="0" glyph-name="zero" horiz-adv-x="591" d="M296 -10Q237 -10 191 15T114 86T65 197T48 343Q48 425 66 490T116 601T194 671T296 696Q351 696 397 672T475 603T525 492T543 343Q543 262 527 197T478 86T400 15T296 -10ZM296 18Q347 18 387 41T454
106T496 208T511 343Q511 418 496 478T453 581T385 645T296 668Q247 668 207 646T139 581T96 479T80 343Q80 269 95 209T137 107T205 41T296 18Z" />
<glyph unicode="1" glyph-name="one" horiz-adv-x="317" d="M225 688V0H194V582Q183 564 164 553T124 536T80 528T42 526V554Q79 555 107 561T154 583T184 623T200 688H225Z" />
<glyph unicode="2" glyph-name="two" horiz-adv-x="525" d="M479 0H39Q40 62 60 107T112 187T184 248T267 297Q305 318 338 337T396 379T435 431T449 503Q449 581 403 626T273 672Q229 672 195 658T136 618T100 557T87 479H56Q56 527 71 567T115 637T184 683T274
700Q322 700 360 685T426 644T467 582T481 504Q481 456 464 422T419 361T355 313T279 270Q241 250 206 228T142 177T95 113T73 29H479V0Z" />
<glyph unicode="3" glyph-name="three" horiz-adv-x="542" d="M225 377H285Q360 377 401 416T443 514Q443 550 430 578T394 627T338 657T268 668Q222 668 188 654T132 615T97 559T84 491H53Q54 533 68 570T110 635T176 679T269 696Q313 696 350 684T415 648T458
591T474 515Q474 459 444 420T359 366V364Q424 348 463 304T502 190Q502 144 486 107T439 44T366 4T273 -10Q219 -10 176 6T101 50T51 119T30 206H62Q69 120 124 70T274 20Q365 20 417 65T470 192Q470 229 456 258T418 308T360 338T286 349H225V377Z" />
<glyph unicode="4" glyph-name="four" horiz-adv-x="550" d="M379 0V188H32V218L381 692H410V216H518V188H410V0H379ZM67 218V216H379V638H378L67 218Z" />
<glyph unicode="5" glyph-name="five" horiz-adv-x="520" d="M444 657H145L91 372Q118 401 159 421T263 441Q311 441 350 425T418 380T463 309T479 218Q479 166 462 124T416 52T346 6T257 -10Q204 -10 163 5T94 47T51 107T33 180H64Q69 147 81 118T117 68T174
33T256 20Q298 20 333 34T393 73T433 135T447 218Q447 260 434 296T397 357T338 397T259 412Q223 412 195 405T146 386T110 359T84 327H54L121 685H444V657Z" />
<glyph unicode="6" glyph-name="six" horiz-adv-x="554" d="M79 344Q79 326 80 302T84 261Q91 298 108 329T152 384T213 421T291 434Q339 434 379 418T449 374T495 306T511 219Q511 166 494 124T448 52T379 6T294 -10Q200 -10 138 46Q91 88 70 159T48 339Q48 511
112 603T294 696Q379 696 430 651T490 528H458Q451 593 408 630T294 668Q191 668 136 586T79 344ZM99 210Q99 166 113 131T154 71T215 32T293 18Q330 18 364 32T423 72T463 135T478 218Q478 260 464 294T426 354T367 392T291 406Q246 406 210 390T150 347T112 285T99
210Z" />
<glyph unicode="7" glyph-name="seven" horiz-adv-x="505" d="M154 0Q163 187 238 353T446 656V657H31V685H481V656Q346 519 272 357T188 0H154Z" />
<glyph unicode="8" glyph-name="eight" horiz-adv-x="560" d="M282 -10Q229 -10 185 4T109 44T59 107T41 190Q41 263 84 310T199 374V376Q142 393 110 433T78 529Q78 566 93 596T135 649T199 683T280 696Q326 696 363 684T426 649T467 596T482 529Q482 473 449
434T359 377V375Q431 359 475 310T519 190Q519 144 501 107T452 44T377 4T282 -10ZM282 18Q329 18 367 31T431 66T472 120T487 190Q487 267 432 313T279 360Q183 360 128 314T73 190Q73 152 87 121T129 66T195 31T282 18ZM279 387Q318 387 349 397T403 427T438
472T450 528Q450 558 438 584T404 628T351 658T280 669Q241 669 210 658T156 629T121 584T109 528Q109 498 121 472T155 428T208 398T279 387Z" />
<glyph unicode="9" glyph-name="nine" horiz-adv-x="552" d="M476 336Q476 359 475 385T471 425Q464 387 447 356T403 301T341 265T263 252Q216 252 176 268T106 312T61 380T44 468Q44 521 61 563T108 635T177 680T260 696Q305 696 341 685T411 647Q462 607 484
532T507 332Q507 250 491 184T440 71Q409 29 365 10T264 -10Q222 -10 186 2T122 35T78 88T57 158H89Q97 92 145 55T263 18Q313 18 350 34T414 88Q446 130 460 190T476 336ZM456 475Q456 515 443 550T406 611T345 652T261 668Q224 668 191 655T132 616T91 553T76
469Q76 427 89 393T128 333T187 294T263 280Q309 280 345 296T406 340T443 402T456 475Z" />
<glyph unicode=":" glyph-name="colon" horiz-adv-x="147" d="M92 319H55V385H92V319ZM92 0H55V66H92V0Z" />
<glyph unicode=";" glyph-name="semicolon" horiz-adv-x="145" d="M36 -86Q55 -73 61 -53T68 -3V0H54V66H91V-1Q91 -39 80 -66T36 -108V-86ZM91 319H54V385H91V319Z" />
<glyph unicode="&lt;" glyph-name="less" horiz-adv-x="510" d="M448 126L58 296V328L448 498V467L88 312V311L448 157V126Z" />
<glyph unicode="=" glyph-name="equal" horiz-adv-x="538" d="M62 397H476V368H62V397ZM62 255H476V226H62V255Z" />
<glyph unicode="&gt;" glyph-name="greater" horiz-adv-x="510" d="M62 157L422 312L62 467V498L452 328V296L62 126V157Z" />
<glyph unicode="?" glyph-name="question" horiz-adv-x="495" d="M213 176Q213 216 218 244T235 296T266 340T315 385Q333 400 351 415T384 448T408 490T417 546Q417 580 405 607T370 655T317 686T250 697Q205 697 171 683T114 644T78 586T64 513H33Q34 555 47
593T88 660T155 707T252 725Q296 725 332 712T395 674T435 617T449 546Q449 510 440 484T414 437T378 399T335 364Q309 342 291 324T262 284T247 238T242 176H213ZM246 0H209V66H246V0Z" />
<glyph unicode="@" glyph-name="at" horiz-adv-x="878" d="M406 84Q367 84 338 98T288 138T257 196T247 268Q247 323 261 369T301 448T363 499T442 518Q496 518 532 490T583 415H584L597 509H624L588 226Q581 176 599 147T663 118Q696 118 722 135T767 182T795
254T805 347Q805 430 777 492T701 597T590 660T458 681Q383 681 314 655T192 578T106 455T74 289Q74 208 99 142T172 28T287 -45T440 -71Q499 -71 548 -59T634 -29L644 -53Q606 -71 554 -84T439 -98Q350 -98 277 -71T153 8T73 130T45 288Q45 388 80 466T173 597T305
679T458 707Q530 707 597 684T717 616T802 504T834 347Q834 291 822 245T788 165T734 112T663 93Q610 93 585 122T562 194Q541 146 500 115T406 84ZM405 110Q442 110 473 128T525 177T559 251T571 342Q571 411 538 452T442 493Q403 493 373 476T321 428T289 357T278
268Q278 237 285 209T308 158T348 123T405 110Z" />
<glyph unicode="A" glyph-name="A" horiz-adv-x="620" d="M477 244H143L49 0H16L292 715H328L604 0H571L477 244ZM153 271H466L311 677H310L153 271Z" />
<glyph unicode="B" glyph-name="B" horiz-adv-x="624" d="M558 536Q558 477 528 437T440 378Q509 361 549 315T589 198Q589 108 530 55Q501 29 460 15T366 0H73V715H351Q443 715 499 671Q527 648 542 615T558 536ZM104 361V29H363Q409 29 445 41T506 76Q556 120
556 199Q556 273 507 316T377 361H104ZM104 389H373Q407 390 435 401T483 431T514 476T525 534Q525 572 512 600T476 648T421 676T351 686H104V389Z" />
<glyph unicode="C" glyph-name="C" horiz-adv-x="691" d="M609 514Q603 551 584 584T535 643T463 683T369 698Q298 698 244 672T153 600T97 492T78 357Q78 283 97 221T153 113T243 43T366 18Q424 18 469 37T546 88T598 164T623 256H652Q647 204 628 158T576 75Q540
35 487 12T366 -11Q292 -11 233 15T132 90T68 206T45 357Q45 438 67 506T132 622T234 698T369 726Q427 726 473 710T554 665T611 598T641 514H609Z" />
<glyph unicode="D" glyph-name="D" horiz-adv-x="669" d="M73 715H329Q407 715 462 687T554 609T607 495T624 354Q624 279 606 215T551 102T457 27T322 0H73V715ZM321 28Q386 28 436 50T520 115T573 217T591 354Q591 430 574 491T524 595T442 662T328 686H104V28H321Z" />
<glyph unicode="E" glyph-name="E" horiz-adv-x="598" d="M104 384H508V356H104V29H553V0H73V715H543V687H104V384Z" />
<glyph unicode="F" glyph-name="F" horiz-adv-x="567" d="M104 384H473V356H104V0H73V715H533V687H104V384Z" />
<glyph unicode="G" glyph-name="G" horiz-adv-x="731" d="M387 326V354H667V0H641L638 169H636Q627 136 607 104T554 46T477 5T377 -11Q296 -11 234 17T130 94T67 211T45 356Q45 432 66 499T130 617T235 697T378 726Q491 726 564 669T656 511H625Q617 553 596
587T543 646T470 684T378 698Q303 698 247 671T153 596T97 487T78 356Q78 285 96 224T152 117T246 45T377 18Q438 18 486 38T567 95T618 181T636 290V326H387Z" />
<glyph unicode="H" glyph-name="H" horiz-adv-x="667" d="M73 715H104V394H563V715H594V0H563V367H104V0H73V715Z" />
<glyph unicode="I" glyph-name="I" horiz-adv-x="183" d="M107 0H76V715H107V0Z" />
<glyph unicode="J" glyph-name="J" horiz-adv-x="470" d="M61 211V186Q61 101 103 59T223 17Q298 17 335 59T372 180V715H403V178Q403 136 393 101T360 41T303 2T223 -12Q132 -12 81 38T30 185V211H61Z" />
<glyph unicode="K" glyph-name="K" horiz-adv-x="623" d="M275 421L613 0H575L252 399L104 258V0H73V715H104V297L540 715H582L275 421Z" />
<glyph unicode="L" glyph-name="L" horiz-adv-x="546" d="M104 29H515V0H73V715H104V29Z" />
<glyph unicode="M" glyph-name="M" horiz-adv-x="809" d="M104 667H103V0H73V715H118L405 41H406L689 715H736V0H705V667H704L421 0H389L104 667Z" />
<glyph unicode="N" glyph-name="N" horiz-adv-x="676" d="M603 0H570L104 663H103V0H73V715H108L572 52H573V715H603V0Z" />
<glyph unicode="O" glyph-name="O" horiz-adv-x="748" d="M373 -10Q300 -10 240 17T137 94T69 210T45 357Q45 436 69 504T136 621T240 698T373 726Q446 726 506 698T610 621T678 504T703 357Q703 278 679 211T611 94T507 18T373 -10ZM373 19Q441 19 496 45T589
117T649 224T670 357Q670 428 649 490T590 598T496 670T373 697Q304 697 250 671T157 598T99 490T78 357Q78 286 98 225T157 118T249 46T373 19Z" />
<glyph unicode="P" glyph-name="P" horiz-adv-x="583" d="M104 327V0H73V715H334Q426 715 480 673Q515 650 533 613T552 522Q552 426 496 377T327 327H104ZM104 355H325Q428 355 474 399T520 522Q520 601 471 643T332 686H104V355Z" />
<glyph unicode="Q" glyph-name="Q" horiz-adv-x="748" d="M373 -11Q300 -11 240 16T137 93T69 210T45 357Q45 436 69 504T136 621T240 698T373 726Q446 726 506 698T610 621T678 504T703 357Q703 265 671 190T582 65L685 -18L667 -42L558 47Q519 19 473 4T373
-11ZM558 85Q612 131 641 201T670 357Q670 428 649 490T590 598T496 670T373 697Q304 697 250 671T157 598T99 490T78 357Q78 286 98 225T157 117T249 45T373 18Q420 18 460 30T534 66L451 134L469 157L558 85Z" />
<glyph unicode="R" glyph-name="R" horiz-adv-x="621" d="M104 0H73V715H359Q459 715 514 666T569 525Q569 455 537 410T435 349V348Q497 334 523 289T553 166Q554 116 557 86T565 38T573 13T582 3V0H548Q544 3 540 10T532 35T525 84T521 166Q518 254 482 293T359
333H104V0ZM104 362H348Q444 362 490 404T537 524Q537 602 491 644T356 687H104V362Z" />
<glyph unicode="S" glyph-name="S" horiz-adv-x="601" d="M63 227Q68 132 131 75T312 18Q361 18 400 30T468 64T511 117T526 188Q526 230 512 258T469 306T395 339T288 364Q233 374 191 388T119 423T74 475T59 548Q59 588 75 621T122 677T195 713T290 726Q399
726 461 671T534 525H502Q491 607 436 652T291 697Q197 697 144 657T91 549Q91 513 103 488T142 445T209 415T303 392Q361 381 408 368T488 332T540 275T558 190Q558 145 541 108T493 45T416 4T313 -11Q244 -11 193 7T106 57T52 132T30 227H63Z" />
<glyph unicode="T" glyph-name="T" horiz-adv-x="598" d="M283 0V686H28V715H570V686H315V0H283Z" />
<glyph unicode="U" glyph-name="U" horiz-adv-x="640" d="M95 715V233Q95 174 111 134T157 67T228 30T320 18Q368 18 409 29T480 67T528 133T545 233V715H577V231Q577 167 557 122T503 47T421 4T319 -10Q263 -10 216 4T135 47T82 122T63 231V715H95Z" />
<glyph unicode="V" glyph-name="V" horiz-adv-x="607" d="M302 44H303L558 715H590L320 0H286L17 715H50L302 44Z" />
<glyph unicode="W" glyph-name="W" horiz-adv-x="884" d="M460 715L643 51H644L832 715H863L660 0H626L443 664H442L261 0H226L21 715H53L243 52H244L426 715H460Z" />
<glyph unicode="X" glyph-name="X" horiz-adv-x="592" d="M278 367L37 715H73L298 390H299L524 715H560L317 366L571 0H535L297 342H296L57 0H21L278 367Z" />
<glyph unicode="Y" glyph-name="Y" horiz-adv-x="592" d="M295 350H296L541 715H576L311 320V0H280V321L16 715H51L295 350Z" />
<glyph unicode="Z" glyph-name="Z" horiz-adv-x="604" d="M61 715H543V686L72 30V28H563V0H35V31L505 686V687H61V715Z" />
<glyph unicode="[" glyph-name="bracketleft" horiz-adv-x="269" d="M229 -90V-118H87V754H229V726H118V-90H229Z" />
<glyph unicode="\" glyph-name="backslash" horiz-adv-x="372" d="M24 715H56L348 0H316L24 715Z" />
<glyph unicode="]" glyph-name="bracketright" horiz-adv-x="269" d="M151 -90V726H40V754H182V-118H40V-90H151Z" />
<glyph unicode="^" glyph-name="asciicircum" horiz-adv-x="396" d="M198 690H197L52 448H19L180 715H215L376 448H344L198 690Z" />
<glyph unicode="_" glyph-name="underscore" horiz-adv-x="391" d="M6 -140H385V-166H6V-140Z" />
<glyph unicode="`" glyph-name="grave" horiz-adv-x="484" d="M267 597H238L155 721H195L267 597Z" />
<glyph unicode="a" glyph-name="a" horiz-adv-x="506" d="M457 -6Q423 -6 409 13T395 65V100H393Q384 78 367 58T324 23T268 -1T197 -10Q123 -10 78 27T32 130Q32 172 48 199T91 243T155 268T232 282Q280 287 311 292T361 306T387 328T395 362V370Q395 499 251
499Q175 499 133 468T86 368H55Q58 402 70 431T106 481T165 514T251 526Q338 526 381 486T425 369V68Q425 39 435 29T463 19Q471 19 478 21T490 26H493V2Q488 -1 479 -3T457 -6ZM199 16Q242 16 278 29T340 64T380 118T395 185V301Q376 286 341 276T238 257Q197
252 165 245T110 223T75 187T62 129Q62 98 74 77T105 42T149 22T199 16Z" />
<glyph unicode="b" glyph-name="b" horiz-adv-x="539" d="M61 715H91V384H92Q117 453 169 489T290 526Q334 526 373 509T441 459T488 375T506 258Q506 199 490 150T445 65T376 10T287 -10Q215 -10 165 26T92 124H91V0H61V715ZM286 16Q329 16 363 34T423 84T461
160T475 257Q475 317 461 362T421 437T360 483T285 499Q241 499 205 482T143 432T103 355T89 256Q89 201 103 157T142 82T204 33T286 16Z" />
<glyph unicode="c" glyph-name="c" horiz-adv-x="507" d="M480 174Q475 134 459 100T417 42T352 4T266 -10Q210 -10 167 11T95 68T50 154T34 259Q34 315 49 363T94 448T167 505T266 526Q351 526 406 484T476 364H446Q430 436 381 467T266 499Q220 499 183 482T120
433T79 357T64 259Q64 205 78 161T119 84T183 35T266 17Q346 17 393 59T451 174H480Z" />
<glyph unicode="d" glyph-name="d" horiz-adv-x="540" d="M256 16Q300 16 336 32T397 80T437 155T451 256Q451 311 438 355T399 432T337 481T257 499Q216 499 181 484T120 438T79 362T64 257Q64 204 77 160T116 83T176 34T256 16ZM449 125H448Q425 61 375 26T254
-10Q204 -10 164 9T95 64T50 149T34 258Q34 324 52 374T100 458T169 509T253 526Q319 526 371 492T448 387H449V715H479V0H449V125Z" />
<glyph unicode="e" glyph-name="e" horiz-adv-x="515" d="M64 260Q64 207 77 163T116 86T180 36T269 17Q340 17 384 52T447 152H477Q469 118 453 89T410 37T349 3T269 -10Q212 -10 168 10T94 67T49 153T34 262Q34 318 50 366T95 450T168 506T265 526Q306 526 339
514T398 480Q441 444 461 388T483 260H64ZM452 285Q446 389 396 444T265 499Q223 499 187 484T125 441T84 374T65 285H452Z" />
<glyph unicode="f" glyph-name="f" horiz-adv-x="270" d="M240 693H204Q166 693 148 675T129 614V517H240V491H129V0H99V491H26V517H99V615Q99 672 125 696T203 720H240V693Z" />
<glyph unicode="g" glyph-name="g" horiz-adv-x="537" d="M446 517H476V19Q476 -73 418 -126Q391 -151 353 -164T263 -177Q169 -177 118 -143T58 -51H89Q99 -101 143 -126T262 -151Q310 -151 344 -138T401 -103T435 -49T446 19V137H444Q420 74 372 40T254 5Q204
5 164 23T95 76T50 158T34 265Q34 330 52 379T100 460T170 509T254 526Q291 526 321 516T376 487T417 443T444 388H446V517ZM256 31Q299 31 334 47T395 93T434 166T448 262Q448 315 435 358T397 433T337 482T257 499Q216 499 181 484T120 439T79 365T64 264Q64
212 77 169T116 96T176 48T256 31Z" />
<glyph unicode="h" glyph-name="h" horiz-adv-x="500" d="M93 424H95Q106 443 123 461T162 494T214 516T281 525Q359 525 401 482T443 370V0H412V367Q412 433 376 465T276 498Q237 498 204 486T146 452T107 404T93 347V0H63V715H93V424Z" />
<glyph unicode="i" glyph-name="i" horiz-adv-x="154" d="M92 0H62V517H92V0ZM92 643H62V710H92V643Z" />
<glyph unicode="j" glyph-name="j" horiz-adv-x="167" d="M104 517V-62Q104 -111 84 -133T15 -156Q9 -156 0 -155T-14 -152V-125Q-2 -129 14 -129Q49 -129 61 -113T74 -62V517H104ZM104 643H74V710H104V643Z" />
<glyph unicode="k" glyph-name="k" horiz-adv-x="466" d="M199 297L91 192V0H61V715H91V228L387 517H426L220 317L457 0H422L199 297Z" />
<glyph unicode="l" glyph-name="l" horiz-adv-x="158" d="M94 0H64V715H94V0Z" />
<glyph unicode="m" glyph-name="m" horiz-adv-x="786" d="M410 0H380V367Q380 433 346 465T255 498Q219 498 189 486T137 452T103 404T91 347V0H61V517H91V427H93Q104 446 118 463T153 494T200 516T260 525Q318 525 354 497T401 420H404Q425 465 468 495T577 525Q651
525 689 482T728 370V0H698V367Q698 433 665 465T572 498Q536 498 506 486T455 454T422 406T410 347V0Z" />
<glyph unicode="n" glyph-name="n" horiz-adv-x="498" d="M91 424H93Q104 443 121 461T160 494T212 516T279 525Q356 525 398 482T440 370V0H410V367Q410 433 374 465T274 498Q234 498 201 486T143 452T105 404T91 347V0H61V517H91V424Z" />
<glyph unicode="o" glyph-name="o" horiz-adv-x="538" d="M269 -10Q214 -10 171 11T97 68T50 154T34 259Q34 314 50 363T96 448T170 505T269 526Q324 526 368 505T442 448T488 364T504 259Q504 203 488 154T442 69T368 11T269 -10ZM269 16Q314 16 351 33T416 83T458
160T473 259Q473 313 458 357T416 433T352 482T269 500Q224 500 187 483T122 434T80 358T64 259Q64 205 79 160T122 83T186 34T269 16Z" />
<glyph unicode="p" glyph-name="p" horiz-adv-x="539" d="M61 517H91V384H92Q117 454 169 490T290 526Q334 526 373 509T441 459T488 375T506 259Q506 200 490 151T445 66T376 11T287 -9Q215 -9 165 27T92 124H91V-166H61V517ZM286 17Q329 17 363 35T423 85T461
161T475 258Q475 318 461 363T421 438T360 483T285 499Q241 499 205 482T143 432T103 355T89 256Q89 201 103 157T142 82T204 34T286 17Z" />
<glyph unicode="q" glyph-name="q" horiz-adv-x="542" d="M257 17Q301 17 337 33T399 80T439 155T453 256Q453 311 440 355T401 432T339 481T259 499Q218 499 183 484T122 438T81 362T66 257Q66 204 79 160T117 84T177 35T257 17ZM451 125H449Q426 62 376 27T256
-9Q206 -9 166 10T96 65T51 149T35 258Q35 324 53 374T101 458T172 509T256 526Q322 526 373 492T449 389H451V517H481V-166H451V125Z" />
<glyph unicode="r" glyph-name="r" horiz-adv-x="310" d="M285 489Q279 490 274 490T262 491Q224 491 193 477T139 440T104 386T91 324V0H61V517H91V412H93Q106 440 125 460T167 494T215 513T266 519Q271 519 275 519T285 518V489Z" />
<glyph unicode="s" glyph-name="s" horiz-adv-x="460" d="M58 159Q64 90 109 53T237 16Q315 16 357 48T399 135Q399 161 391 180T364 214T313 238T233 258Q139 274 94 304T48 395Q48 453 93 489T222 526Q268 526 301 515T356 483T391 436T409 377H379Q371 433
334 466T222 499Q146 499 112 470T78 395Q78 372 86 355T114 325T165 303T243 285Q290 277 325 266T383 237T417 195T429 135Q429 68 377 29T237 -10Q186 -10 148 3T84 38T44 92T28 159H58Z" />
<glyph unicode="t" glyph-name="t" horiz-adv-x="281" d="M26 517H101V677H131V517H244V491H131V82Q131 50 145 36T194 21Q220 21 241 29H243V3Q232 -1 218 -3T189 -5Q101 -5 101 80V491H26V517Z" />
<glyph unicode="u" glyph-name="u" horiz-adv-x="492" d="M401 89H399Q388 70 372 53T335 22T285 0T221 -9Q142 -9 100 34T57 147V517H88V150Q88 83 124 50T226 17Q265 17 297 30T352 64T388 114T401 173V517H431V0H401V89Z" />
<glyph unicode="v" glyph-name="v" horiz-adv-x="450" d="M223 36H224L406 517H437L242 0H206L13 517H45L223 36Z" />
<glyph unicode="w" glyph-name="w" horiz-adv-x="710" d="M196 40H197L337 517H371L507 39L663 517H694L524 0H489L354 471H353L215 0H178L16 517H48L196 40Z" />
<glyph unicode="x" glyph-name="x" horiz-adv-x="480" d="M221 275L39 517H76L239 297L401 517H437L258 275L465 0H428L240 253H239L51 0H15L221 275Z" />
<glyph unicode="y" glyph-name="y" horiz-adv-x="456" d="M224 -53Q210 -89 197 -111T168 -146T135 -164T94 -169Q78 -169 68 -167T49 -162V-134H50Q67 -141 95 -141Q112 -141 125 -138T150 -124T173 -94T196 -44L216 7L13 517H45L231 46H232L411 517H443L224 -53Z" />
<glyph unicode="z" glyph-name="z" horiz-adv-x="457" d="M74 28V27H424V0H38V28L374 489V490H56V517H413V491L74 28Z" />
<glyph unicode="{" glyph-name="braceleft" horiz-adv-x="278" d="M99 621Q99 694 129 724T223 754H231V726H224Q175 726 153 703T130 621V405Q130 339 82 322Q108 313 119 294T130 239V16Q130 -44 152 -67T224 -90H231V-118H223Q160 -118 130 -88T99 16V237Q99
271 86 289T36 308H32V336H36Q71 337 85 355T99 407V621Z" />
<glyph unicode="|" glyph-name="bar" horiz-adv-x="199" d="M85 754H114V-118H85V754Z" />
<glyph unicode="}" glyph-name="braceright" horiz-adv-x="278" d="M47 754H55Q118 754 148 724T179 621V407Q179 373 193 355T242 336H246V308H242Q206 307 193 289T179 237V16Q179 -57 149 -87T55 -118H47V-90H54Q103 -90 125 -67T148 16V239Q148 274 159 293T196
322Q148 339 148 405V621Q148 680 126 703T54 726H47V754Z" />
<glyph unicode="~" glyph-name="asciitilde" horiz-adv-x="398" d="M193 321Q174 334 159 343T123 353Q101 353 88 337T73 291H45Q48 333 68 357T124 381Q149 381 167 371T207 346Q227 332 241 324T274 316Q296 316 309 332T324 377H353Q350 335 329 312T273 288Q250
288 232 297T193 321Z" />
<glyph unicode="&#xa0;" glyph-name="uni00A0" horiz-adv-x="164" />
<glyph unicode="&#xa1;" glyph-name="exclamdown" horiz-adv-x="190" d="M84 413H106L111 130V-127H78V130L84 413ZM77 588H113V518H77V588Z" />
<glyph unicode="&#xa2;" glyph-name="cent" horiz-adv-x="510" d="M480 174Q470 97 421 46T281 -10V-85H256V-10Q203 -8 162 14T93 72T49 156T34 259Q34 313 48 361T91 444T161 501T256 525V591H281V525Q359 521 411 480T477 364H447Q432 431 387 463T281 499V17Q354
22 398 63T451 174H480ZM65 259Q65 207 79 164T118 88T178 38T256 17V499Q213 497 178 479T118 430T79 355T65 259Z" />
<glyph unicode="&#xa3;" glyph-name="sterling" horiz-adv-x="540" d="M42 348H118Q101 390 89 427T76 507Q76 547 90 581T130 641T196 681T286 696Q329 696 366 683T432 644T476 578T494 485H464Q462 534 447 569T408 626T351 658T284 669Q199 669 154 624T108
506Q108 468 120 431T150 348H321V321H160Q168 298 173 274T178 224Q178 169 161 129T110 55L111 54Q142 71 180 71Q210 71 234 63T279 45Q300 35 323 28T376 20Q411 20 440 35T494 76L512 54Q483 25 452 9T375 -8Q340 -8 316 0T270 18Q249 27 227 36T175 45Q143
45 117 33T61 -3L42 22Q92 62 120 109T149 221Q149 247 143 272T128 321H42V348Z" />
<glyph unicode="&#xa5;" glyph-name="yen" horiz-adv-x="545" d="M480 189H287V0H256V189H64V216H256V309H64V335H246L19 685H55L271 348H272L491 685H526L297 335H480V309H287V216H480V189Z" />
<glyph unicode="&#xa6;" glyph-name="brokenbar" horiz-adv-x="199" d="M85 754H114V358H85V754ZM85 294H114V-118H85V294Z" />
<glyph unicode="&#xa7;" glyph-name="section" horiz-adv-x="561" d="M525 186Q525 132 494 100T411 51Q436 28 445 6T455 -45Q455 -106 410 -141T289 -176Q245 -176 209 -164T147 -128T105 -72T87 -1H119Q125 -73 171 -110T289 -148Q350 -148 386 -121T423 -45Q423
-21 415 -4T387 31T333 69T247 120Q198 148 159 172T93 220T51 270T36 331Q36 384 67 416T154 465Q132 485 120 507T108 560Q108 620 152 656T277 693Q357 693 404 650T458 531H426Q420 595 381 630T276 665Q210 665 175 637T140 561Q140 534 153 513T191 473T251
434T332 387Q379 360 415 338T475 292T512 244T525 186ZM319 360Q270 389 236 408T177 445Q120 431 94 403T68 332Q68 306 78 285T111 244T170 201T261 148Q309 121 338 103T389 69Q437 83 465 112T494 185Q494 212 483 233T451 274T396 314T319 360Z" />
<glyph unicode="&#xa8;" glyph-name="dieresis" horiz-adv-x="480" d="M181 644H151V709H181V644ZM329 644H299V709H329V644Z" />
<glyph unicode="&#xa9;" glyph-name="copyright" horiz-adv-x="821" d="M411 -14Q334 -14 268 14T154 91T77 208T49 355Q49 434 77 501T153 618T268 696T411 725Q487 725 553 697T667 619T744 502T772 355Q772 276 744 209T668 92T553 14T411 -14ZM411 8Q483 8
544 34T651 107T721 217T747 355Q747 429 722 493T651 603T545 676T411 703Q339 703 278 677T171 604T101 493T75 355Q75 281 100 218T171 108T277 35T411 8ZM560 451Q552 496 516 529T417 562Q375 562 343 547T288 504T255 439T243 357Q243 311 255 274T289 209T344
167T415 152Q484 152 521 190T565 285H595Q593 253 581 225T547 175Q524 152 492 139T415 125Q371 125 334 141T269 188T227 261T211 357Q211 407 225 449T266 523T331 571T417 589Q455 589 485 579T537 549T572 505T591 451H560Z" />
<glyph unicode="&#xaa;" glyph-name="ordfeminine" horiz-adv-x="476" d="M423 232Q392 232 379 251T365 299V323H364Q345 283 303 256T195 228Q130 228 89 261T47 353Q47 391 61 415T100 454T157 476T226 487Q265 491 291 495T334 507T358 523T365 548V560Q365
616 335 645T242 674Q178 674 142 647T101 560H71Q73 590 84 615T116 660T168 689T242 700Q317 700 356 665T395 557V302Q395 276 404 267T429 258Q442 258 456 264H458V240Q453 237 444 235T423 232ZM198 254Q235 254 266 265T319 296T353 343T365 401V497Q349
485 318 478T231 462Q195 458 167 452T119 434T89 403T78 353Q78 326 88 307T116 276T154 259T198 254Z" />
<glyph unicode="&#xab;" glyph-name="guillemotleft" horiz-adv-x="394" d="M198 252V291L332 411V373L219 272V271L332 169V131L198 252ZM62 252V291L196 411V373L83 272V271L196 169V131L62 252Z" />
<glyph unicode="&#xae;" glyph-name="registered" horiz-adv-x="538" d="M269 247Q220 247 178 265T103 315T53 390T34 486Q34 537 52 581T103 657T177 707T269 725Q318 725 360 707T435 657T485 581T504 486Q504 434 486 391T435 315T361 265T269 247ZM269 268Q314
268 352 284T419 330T464 399T480 486Q480 533 464 573T420 642T353 687T269 704Q225 704 187 688T120 642T75 573T59 486Q59 439 75 399T119 330T186 285T269 268ZM205 360H179V619H288Q324 619 346 601T369 548Q369 498 320 485V484Q342 478 350 464T361 424Q364
391 365 379T372 363V360H347Q343 363 341 376T337 421Q335 453 319 463T275 474H205V360ZM205 495H282Q313 495 328 508T343 546Q343 570 328 583T283 597H205V495Z" />
<glyph unicode="&#xaf;" glyph-name="macron" horiz-adv-x="494" d="M133 671H361V641H133V671Z" />
<glyph unicode="&#xb0;" glyph-name="degree" horiz-adv-x="325" d="M163 462Q138 462 117 471T79 495T54 532T45 579Q45 603 54 624T79 662T116 687T163 696Q188 696 209 687T246 662T270 625T279 579Q279 529 247 496T163 462ZM163 486Q202 486 226 512T251
579Q251 618 227 644T163 671Q124 671 99 645T74 579Q74 539 99 513T163 486Z" />
<glyph unicode="&#xb2;" glyph-name="twosuperior" horiz-adv-x="343" d="M35 280Q36 315 47 340T76 385T117 420T165 451Q187 464 207 476T242 501T265 531T274 571Q274 615 248 640T174 666Q119 666 94 634T68 555H40Q40 612 73 651T174 691Q237 691 270 657T303
572Q303 544 293 524T266 488T228 459T183 432Q162 420 143 408T108 381T82 348T69 305H305V280H35Z" />
<glyph unicode="&#xb3;" glyph-name="threesuperior" horiz-adv-x="359" d="M188 506Q230 506 253 528T277 584Q277 622 250 644T179 667Q128 667 103 638T75 567H47Q49 618 82 654T179 691Q234 691 270 663T306 585Q306 552 289 530T241 496V495Q280 485 301
460T323 393Q323 336 283 305T182 273Q115 273 75 310T33 407H62Q65 357 96 328T181 298Q232 298 262 323T293 395Q293 438 265 460T189 482H152V506H188Z" />
<glyph unicode="&#xb4;" glyph-name="acute" horiz-adv-x="484" d="M287 721H327L246 597H218L287 721Z" />
<glyph unicode="&#xb6;" glyph-name="paragraph" horiz-adv-x="470" d="M227 384Q134 384 86 427T37 552Q37 589 49 619T85 671Q132 715 219 715H397V0H366V685H290V0H258V384H227Z" />
<glyph unicode="&#xb7;" glyph-name="periodcentered" horiz-adv-x="138" d="M89 279H52V345H89V279Z" />
<glyph unicode="&#xb8;" glyph-name="cedilla" horiz-adv-x="510" d="M290 0L230 -54Q234 -53 247 -53Q284 -52 305 -68T326 -112Q326 -147 299 -164T231 -181Q205 -181 181 -174T137 -155L147 -138Q184 -158 227 -158Q258 -158 277 -147T296 -112Q296 -75 242
-75Q228 -75 216 -78T195 -86L185 -71L258 0H290Z" />
<glyph unicode="&#xb9;" glyph-name="onesuperior" horiz-adv-x="233" d="M133 280V617Q122 600 95 593T35 585V609Q83 610 107 626T137 688H162V280H133Z" />
<glyph unicode="&#xba;" glyph-name="ordmasculine" horiz-adv-x="501" d="M251 222Q201 222 162 240T96 291T54 367T39 460Q39 509 53 554T95 631T162 681T251 700Q300 700 339 682T406 631T447 554T462 460Q462 410 448 367T406 292T340 241T251 222ZM251 248Q294
248 327 265T384 310T420 377T432 460Q432 503 420 543T385 612T328 658T251 675Q208 675 174 658T117 613T82 544T69 460Q69 416 81 378T117 311T174 265T251 248Z" />
<glyph unicode="&#xbb;" glyph-name="guillemotright" horiz-adv-x="394" d="M198 169L311 272L198 373V411L332 291V252L198 131V169ZM62 169L175 272L62 373V411L196 291V252L62 131V169Z" />
<glyph unicode="&#xbc;" glyph-name="onequarter" horiz-adv-x="733" d="M605 0V107H393V134L607 410H633V132H697V107H633V0H605ZM605 364H604L423 132H605V364ZM136 310V647Q125 630 98 623T38 615V639Q86 640 110 656T140 718H165V310H136ZM608 715L110 0H76L575
715H608Z" />
<glyph unicode="&#xbd;" glyph-name="onehalf" horiz-adv-x="762" d="M449 0Q450 35 461 60T490 105T531 140T579 171Q601 184 621 196T656 221T679 251T688 291Q688 335 662 360T588 386Q533 386 508 354T482 275H454Q454 332 487 371T588 411Q651 411 684 377T717
292Q717 264 707 244T680 208T642 179T597 152Q576 140 557 128T522 101T496 68T483 25H719V0H449ZM136 310V647Q125 630 98 623T38 615V639Q86 640 110 656T140 718H165V310H136ZM597 715L99 0H65L564 715H597Z" />
<glyph unicode="&#xbe;" glyph-name="threequarters" horiz-adv-x="815" d="M191 537Q233 537 256 559T280 615Q280 653 253 675T182 698Q131 698 106 669T78 598H50Q52 649 85 685T182 722Q237 722 273 694T309 616Q309 583 292 561T244 527V526Q283 516 304
491T326 424Q326 367 286 336T185 304Q118 304 78 341T36 438H65Q68 388 99 359T184 329Q235 329 265 354T296 426Q296 469 268 491T192 513H155V537H191ZM687 0V107H475V134L689 410H715V132H779V107H715V0H687ZM687 364H686L505 132H687V364ZM700 715L202 0H168L667
715H700Z" />
<glyph unicode="&#xbf;" glyph-name="questiondown" horiz-adv-x="495" d="M282 412Q282 372 277 344T260 292T229 248T180 203Q162 188 144 173T111 140T87 98T78 42Q78 8 90 -19T125 -67T177 -98T244 -109Q289 -109 323 -95T381 -56T417 2T431 75H462Q461 33
448 -5T407 -72T339 -119T243 -137Q198 -137 162 -124T100 -86T60 -29T46 42Q46 78 55 104T81 151T117 189T160 224Q186 246 204 264T232 304T247 350T252 412H282ZM248 588H285V518H248V588Z" />
<glyph unicode="&#xc0;" glyph-name="Agrave" horiz-adv-x="620" d="M325 755H296L214 867H254L325 755ZM477 244H143L49 0H16L292 715H328L604 0H571L477 244ZM153 271H466L311 677H310L153 271Z" />
<glyph unicode="&#xc1;" glyph-name="Aacute" horiz-adv-x="620" d="M360 867H401L321 755H293L360 867ZM477 244H143L49 0H16L292 715H328L604 0H571L477 244ZM153 271H466L311 677H310L153 271Z" />
<glyph unicode="&#xc2;" glyph-name="Acircumflex" horiz-adv-x="620" d="M422 755H386L310 838H309L232 755H197L291 858H328L422 755ZM477 244H143L49 0H16L292 715H328L604 0H571L477 244ZM153 271H466L311 677H310L153 271Z" />
<glyph unicode="&#xc3;" glyph-name="Atilde" horiz-adv-x="620" d="M247 845Q268 845 284 837T315 819T344 801T376 793Q393 793 404 805T417 845H443Q441 805 423 786T376 766Q356 766 340 774T308 792T278 810T246 818Q230 818 219 806T206 766H180Q182 805
200 825T247 845ZM477 244H143L49 0H16L292 715H328L604 0H571L477 244ZM153 271H466L311 677H310L153 271Z" />
<glyph unicode="&#xc4;" glyph-name="Adieresis" horiz-adv-x="620" d="M251 770H221V836H251V770ZM399 770H369V836H399V770ZM477 244H143L49 0H16L292 715H328L604 0H571L477 244ZM153 271H466L311 677H310L153 271Z" />
<glyph unicode="&#xc5;" glyph-name="Aring" horiz-adv-x="620" d="M309 749Q274 749 251 772T228 830Q228 865 251 887T309 910Q344 910 367 888T390 830Q390 795 367 772T309 749ZM309 771Q335 771 350 787T366 830Q366 856 351 872T309 888Q284 888 269 872T253
830Q253 804 268 788T309 771ZM477 244H143L49 0H16L292 715H328L604 0H571L477 244ZM153 271H466L311 677H310L153 271Z" />
<glyph unicode="&#xc6;" glyph-name="AE" horiz-adv-x="930" d="M485 384H841V356H485V29H885V0H453V244H150L52 0H20L305 715H875V687H485V384ZM160 271H453V687H326L160 271Z" />
<glyph unicode="&#xc7;" glyph-name="Ccedilla" horiz-adv-x="691" d="M609 514Q603 551 584 584T535 643T463 683T369 698Q298 698 244 672T153 600T97 492T78 357Q78 283 97 221T153 113T243 43T366 18Q424 18 469 37T546 88T598 164T623 256H652Q647 204 628
158T576 75Q544 40 499 18T397 -10L348 -55Q352 -53 365 -53Q402 -52 423 -68T444 -112Q444 -147 417 -164T349 -181Q323 -181 299 -174T255 -155L265 -138Q302 -158 345 -158Q376 -158 395 -147T414 -112Q414 -75 360 -75Q346 -75 334 -78T313 -86L303 -71L364
-11Q291 -11 232 15T132 90T68 206T45 357Q45 438 67 506T132 622T234 698T369 726Q427 726 473 710T554 665T611 598T641 514H609Z" />
<glyph unicode="&#xc8;" glyph-name="Egrave" horiz-adv-x="598" d="M334 755H305L223 867H263L334 755ZM104 384H508V356H104V29H553V0H73V715H543V687H104V384Z" />
<glyph unicode="&#xc9;" glyph-name="Eacute" horiz-adv-x="598" d="M361 867H402L322 755H294L361 867ZM104 384H508V356H104V29H553V0H73V715H543V687H104V384Z" />
<glyph unicode="&#xca;" glyph-name="Ecircumflex" horiz-adv-x="598" d="M426 755H390L314 838H313L236 755H201L295 858H332L426 755ZM104 384H508V356H104V29H553V0H73V715H543V687H104V384Z" />
<glyph unicode="&#xcb;" glyph-name="Edieresis" horiz-adv-x="598" d="M255 770H225V836H255V770ZM403 770H373V836H403V770ZM104 384H508V356H104V29H553V0H73V715H543V687H104V384Z" />
<glyph unicode="&#xcc;" glyph-name="Igrave" horiz-adv-x="183" d="M105 755H76L-6 867H34L105 755ZM107 0H76V715H107V0Z" />
<glyph unicode="&#xcd;" glyph-name="Iacute" horiz-adv-x="183" d="M146 867H187L107 755H79L146 867ZM107 0H76V715H107V0Z" />
<glyph unicode="&#xce;" glyph-name="Icircumflex" horiz-adv-x="183" d="M204 755H168L92 838H91L14 755H-21L73 858H110L204 755ZM107 0H76V715H107V0Z" />
<glyph unicode="&#xcf;" glyph-name="Idieresis" horiz-adv-x="183" d="M40 770H10V836H40V770ZM188 770H158V836H188V770ZM107 0H76V715H107V0Z" />
<glyph unicode="&#xd0;" glyph-name="Eth" horiz-adv-x="683" d="M84 346H11V374H84V715H340Q418 715 473 687T565 609T618 495T635 354Q635 279 617 215T562 102T468 27T333 0H84V346ZM333 28Q398 28 448 50T532 115T584 217T602 354Q602 430 586 491T536 595T454
662T340 686H115V374H373V346H115V28H333Z" />
<glyph unicode="&#xd1;" glyph-name="Ntilde" horiz-adv-x="676" d="M289 845Q310 845 326 837T357 819T386 801T418 793Q435 793 446 805T459 845H485Q483 805 465 786T418 766Q398 766 382 774T350 792T320 810T288 818Q272 818 261 806T248 766H222Q224 805
242 825T289 845ZM603 0H570L104 663H103V0H73V715H108L572 52H573V715H603V0Z" />
<glyph unicode="&#xd2;" glyph-name="Ograve" horiz-adv-x="748" d="M394 755H365L283 867H323L394 755ZM373 -10Q300 -10 240 17T137 94T69 210T45 357Q45 436 69 504T136 621T240 698T373 726Q446 726 506 698T610 621T678 504T703 357Q703 278 679 211T611
94T507 18T373 -10ZM373 19Q441 19 496 45T589 117T649 224T670 357Q670 428 649 490T590 598T496 670T373 697Q304 697 250 671T157 598T99 490T78 357Q78 286 98 225T157 118T249 46T373 19Z" />
<glyph unicode="&#xd3;" glyph-name="Oacute" horiz-adv-x="748" d="M413 867H454L374 755H346L413 867ZM373 -10Q300 -10 240 17T137 94T69 210T45 357Q45 436 69 504T136 621T240 698T373 726Q446 726 506 698T610 621T678 504T703 357Q703 278 679 211T611
94T507 18T373 -10ZM373 19Q441 19 496 45T589 117T649 224T670 357Q670 428 649 490T590 598T496 670T373 697Q304 697 250 671T157 598T99 490T78 357Q78 286 98 225T157 118T249 46T373 19Z" />
<glyph unicode="&#xd4;" glyph-name="Ocircumflex" horiz-adv-x="748" d="M485 755H449L373 838H372L295 755H260L354 858H391L485 755ZM373 -10Q300 -10 240 17T137 94T69 210T45 357Q45 436 69 504T136 621T240 698T373 726Q446 726 506 698T610 621T678 504T703
357Q703 278 679 211T611 94T507 18T373 -10ZM373 19Q441 19 496 45T589 117T649 224T670 357Q670 428 649 490T590 598T496 670T373 697Q304 697 250 671T157 598T99 490T78 357Q78 286 98 225T157 118T249 46T373 19Z" />
<glyph unicode="&#xd5;" glyph-name="Otilde" horiz-adv-x="748" d="M309 845Q330 845 346 837T377 819T406 801T438 793Q455 793 466 805T479 845H505Q503 805 485 786T438 766Q418 766 402 774T370 792T340 810T308 818Q292 818 281 806T268 766H242Q244 805
262 825T309 845ZM373 -10Q300 -10 240 17T137 94T69 210T45 357Q45 436 69 504T136 621T240 698T373 726Q446 726 506 698T610 621T678 504T703 357Q703 278 679 211T611 94T507 18T373 -10ZM373 19Q441 19 496 45T589 117T649 224T670 357Q670 428 649 490T590
598T496 670T373 697Q304 697 250 671T157 598T99 490T78 357Q78 286 98 225T157 118T249 46T373 19Z" />
<glyph unicode="&#xd6;" glyph-name="Odieresis" horiz-adv-x="748" d="M315 770H285V836H315V770ZM463 770H433V836H463V770ZM373 -10Q300 -10 240 17T137 94T69 210T45 357Q45 436 69 504T136 621T240 698T373 726Q446 726 506 698T610 621T678 504T703 357Q703
278 679 211T611 94T507 18T373 -10ZM373 19Q441 19 496 45T589 117T649 224T670 357Q670 428 649 490T590 598T496 670T373 697Q304 697 250 671T157 598T99 490T78 357Q78 286 98 225T157 118T249 46T373 19Z" />
<glyph unicode="&#xd7;" glyph-name="multiply" horiz-adv-x="524" d="M440 487L281 325L440 163L420 143L262 304L104 143L84 163L242 325L83 487L103 507L262 344L421 507L440 487Z" />
<glyph unicode="&#xd8;" glyph-name="Oslash" horiz-adv-x="748" d="M40 7L127 104Q88 153 66 217T44 358Q44 437 68 504T135 621T239 698T372 726Q441 726 498 701T600 631L685 726L704 708L617 612Q657 563 679 498T701 358Q701 279 677 212T610 95T506 18T372
-10Q303 -10 245 15T144 85L58 -11L40 7ZM372 19Q440 19 495 45T588 118T648 225T669 358Q669 425 650 483T596 587L165 107Q203 65 254 42T372 19ZM77 358Q77 290 95 231T148 127L580 608Q542 650 490 673T372 697Q303 697 249 671T156 599T98 491T77 358Z" />
<glyph unicode="&#xd9;" glyph-name="Ugrave" horiz-adv-x="640" d="M346 755H317L235 867H275L346 755ZM95 715V233Q95 174 111 134T157 67T228 30T320 18Q368 18 409 29T480 67T528 133T545 233V715H577V231Q577 167 557 122T503 47T421 4T319 -10Q263 -10 216
4T135 47T82 122T63 231V715H95Z" />
<glyph unicode="&#xda;" glyph-name="Uacute" horiz-adv-x="640" d="M359 867H400L320 755H292L359 867ZM95 715V233Q95 174 111 134T157 67T228 30T320 18Q368 18 409 29T480 67T528 133T545 233V715H577V231Q577 167 557 122T503 47T421 4T319 -10Q263 -10 216
4T135 47T82 122T63 231V715H95Z" />
<glyph unicode="&#xdb;" glyph-name="Ucircumflex" horiz-adv-x="640" d="M435 755H399L323 838H322L245 755H210L304 858H341L435 755ZM95 715V233Q95 174 111 134T157 67T228 30T320 18Q368 18 409 29T480 67T528 133T545 233V715H577V231Q577 167 557 122T503
47T421 4T319 -10Q263 -10 216 4T135 47T82 122T63 231V715H95Z" />
<glyph unicode="&#xdc;" glyph-name="Udieresis" horiz-adv-x="640" d="M262 770H232V836H262V770ZM410 770H380V836H410V770ZM95 715V233Q95 174 111 134T157 67T228 30T320 18Q368 18 409 29T480 67T528 133T545 233V715H577V231Q577 167 557 122T503 47T421
4T319 -10Q263 -10 216 4T135 47T82 122T63 231V715H95Z" />
<glyph unicode="&#xdd;" glyph-name="Yacute" horiz-adv-x="592" d="M341 867H382L302 755H274L341 867ZM295 350H296L541 715H576L311 320V0H280V321L16 715H51L295 350Z" />
<glyph unicode="&#xde;" glyph-name="Thorn" horiz-adv-x="574" d="M104 573H321Q429 573 486 525Q514 502 528 467T543 382Q543 281 485 234T310 187H104V0H73V715H104V573ZM104 544V215H309Q415 215 463 255T511 381Q511 468 461 506T319 544H104Z" />
<glyph unicode="&#xdf;" glyph-name="germandbls" horiz-adv-x="488" d="M197 418H240Q272 418 297 428T341 458T369 502T379 557Q379 619 342 658T236 697Q161 697 126 654T91 538V0H61V540Q61 622 104 672T236 723Q276 723 308 711T362 676T397 623T410 557Q410
502 382 464T302 409V408Q370 393 412 341T455 210Q455 108 399 52T245 -5Q234 -5 218 -4T189 1V27H190Q203 24 217 23T242 22Q329 22 376 72T424 208Q424 249 412 283T376 341T320 378T248 392H197V418Z" />
<glyph unicode="&#xe0;" glyph-name="agrave" horiz-adv-x="506" d="M457 -6Q423 -6 409 13T395 65V100H393Q384 78 367 58T324 23T268 -1T197 -10Q123 -10 78 27T32 130Q32 172 48 199T91 243T155 268T232 282Q280 287 311 292T361 306T387 328T395 362V370Q395
499 251 499Q175 499 133 468T86 368H55Q58 402 70 431T106 481T165 514T251 526Q338 526 381 486T425 369V68Q425 39 435 29T463 19Q471 19 478 21T490 26H493V2Q488 -1 479 -3T457 -6ZM199 16Q242 16 278 29T340 64T380 118T395 185V301Q376 286 341 276T238
257Q197 252 165 245T110 223T75 187T62 129Q62 98 74 77T105 42T149 22T199 16ZM270 597H241L158 721H198L270 597Z" />
<glyph unicode="&#xe1;" glyph-name="aacute" horiz-adv-x="506" d="M457 -6Q423 -6 409 13T395 65V100H393Q384 78 367 58T324 23T268 -1T197 -10Q123 -10 78 27T32 130Q32 172 48 199T91 243T155 268T232 282Q280 287 311 292T361 306T387 328T395 362V370Q395
499 251 499Q175 499 133 468T86 368H55Q58 402 70 431T106 481T165 514T251 526Q338 526 381 486T425 369V68Q425 39 435 29T463 19Q471 19 478 21T490 26H493V2Q488 -1 479 -3T457 -6ZM199 16Q242 16 278 29T340 64T380 118T395 185V301Q376 286 341 276T238
257Q197 252 165 245T110 223T75 187T62 129Q62 98 74 77T105 42T149 22T199 16ZM294 721H334L253 597H225L294 721Z" />
<glyph unicode="&#xe2;" glyph-name="acircumflex" horiz-adv-x="506" d="M457 -6Q423 -6 409 13T395 65V100H393Q384 78 367 58T324 23T268 -1T197 -10Q123 -10 78 27T32 130Q32 172 48 199T91 243T155 268T232 282Q280 287 311 292T361 306T387 328T395 362V370Q395
499 251 499Q175 499 133 468T86 368H55Q58 402 70 431T106 481T165 514T251 526Q338 526 381 486T425 369V68Q425 39 435 29T463 19Q471 19 478 21T490 26H493V2Q488 -1 479 -3T457 -6ZM199 16Q242 16 278 29T340 64T380 118T395 185V301Q376 286 341 276T238
257Q197 252 165 245T110 223T75 187T62 129Q62 98 74 77T105 42T149 22T199 16ZM349 599H314L243 683H242L170 599H137L224 704H261L349 599Z" />
<glyph unicode="&#xe3;" glyph-name="atilde" horiz-adv-x="506" d="M457 -6Q423 -6 409 13T395 65V100H393Q384 78 367 58T324 23T268 -1T197 -10Q123 -10 78 27T32 130Q32 172 48 199T91 243T155 268T232 282Q280 287 311 292T361 306T387 328T395 362V370Q395
499 251 499Q175 499 133 468T86 368H55Q58 402 70 431T106 481T165 514T251 526Q338 526 381 486T425 369V68Q425 39 435 29T463 19Q471 19 478 21T490 26H493V2Q488 -1 479 -3T457 -6ZM199 16Q242 16 278 29T340 64T380 118T395 185V301Q376 286 341 276T238
257Q197 252 165 245T110 223T75 187T62 129Q62 98 74 77T105 42T149 22T199 16ZM438 686Q459 686 475 678T506 660T535 642T567 634Q584 634 595 646T608 686H634Q632 646 614 627T567 607Q547 607 531 615T499 633T469 651T437 659Q421 659 410 647T397 607H371Q373
646 391 666T438 686Z" />
<glyph unicode="&#xe4;" glyph-name="adieresis" horiz-adv-x="506" d="M457 -6Q423 -6 409 13T395 65V100H393Q384 78 367 58T324 23T268 -1T197 -10Q123 -10 78 27T32 130Q32 172 48 199T91 243T155 268T232 282Q280 287 311 292T361 306T387 328T395 362V370Q395
499 251 499Q175 499 133 468T86 368H55Q58 402 70 431T106 481T165 514T251 526Q338 526 381 486T425 369V68Q425 39 435 29T463 19Q471 19 478 21T490 26H493V2Q488 -1 479 -3T457 -6ZM199 16Q242 16 278 29T340 64T380 118T395 185V301Q376 286 341 276T238
257Q197 252 165 245T110 223T75 187T62 129Q62 98 74 77T105 42T149 22T199 16ZM190 644H160V709H190V644ZM338 644H308V709H338V644Z" />
<glyph unicode="&#xe5;" glyph-name="aring" horiz-adv-x="506" d="M457 -6Q423 -6 409 13T395 65V100H393Q384 78 367 58T324 23T268 -1T197 -10Q123 -10 78 27T32 130Q32 172 48 199T91 243T155 268T232 282Q280 287 311 292T361 306T387 328T395 362V370Q395
499 251 499Q175 499 133 468T86 368H55Q58 402 70 431T106 481T165 514T251 526Q338 526 381 486T425 369V68Q425 39 435 29T463 19Q471 19 478 21T490 26H493V2Q488 -1 479 -3T457 -6ZM199 16Q242 16 278 29T340 64T380 118T395 185V301Q376 286 341 276T238
257Q197 252 165 245T110 223T75 187T62 129Q62 98 74 77T105 42T149 22T199 16ZM504 571Q469 571 446 594T423 652Q423 687 446 709T504 732Q539 732 562 710T585 652Q585 617 562 594T504 571ZM504 593Q530 593 545 609T560 652Q560 677 545 693T504 710Q478
710 463 694T448 652Q448 626 463 610T504 593Z" />
<glyph unicode="&#xe6;" glyph-name="ae" horiz-adv-x="860" d="M425 259Q425 207 437 163T473 86T535 35T622 16Q692 16 733 51T792 151H821Q813 117 798 88T759 36T700 2T622 -11Q539 -11 488 30T414 140Q404 99 384 71T335 24T273 -2T203 -11Q127 -11 80 26T32
130Q32 172 48 199T91 243T154 268T232 282Q280 287 311 292T361 306T387 328T395 362V368Q395 431 360 465T252 499Q102 499 89 368H59Q62 402 74 431T110 481T169 514T252 526Q331 526 372 491T421 388Q444 449 493 487T617 526Q658 526 690 514T747 481Q789
445 807 389T827 259H425ZM395 302Q376 286 342 276T238 257Q197 252 165 245T110 223T75 187T62 129Q62 98 74 77T107 42T152 22T204 16Q247 16 282 28T342 64T381 120T395 194V302ZM796 285Q791 388 745 443T617 499Q575 499 541 484T482 440T443 373T426 285H796Z"
/>
<glyph unicode="&#xe7;" glyph-name="ccedilla" horiz-adv-x="507" d="M480 174Q471 99 424 49T293 -9L243 -55Q247 -53 260 -53Q297 -52 318 -68T339 -112Q339 -147 312 -164T244 -181Q218 -181 194 -174T150 -155L160 -138Q197 -158 240 -158Q271 -158 290 -147T309
-112Q309 -75 255 -75Q241 -75 229 -78T208 -86L198 -71L261 -10Q207 -9 165 12T93 70T49 155T34 259Q34 315 49 363T94 448T167 505T266 526Q351 526 406 484T476 364H446Q430 436 381 467T266 499Q220 499 183 482T120 433T79 357T64 259Q64 205 78 161T119 84T183
35T266 17Q346 17 393 59T451 174H480Z" />
<glyph unicode="&#xe8;" glyph-name="egrave" horiz-adv-x="515" d="M64 260Q64 207 77 163T116 86T180 36T269 17Q340 17 384 52T447 152H477Q469 118 453 89T410 37T349 3T269 -10Q212 -10 168 10T94 67T49 153T34 262Q34 318 50 366T95 450T168 506T265 526Q306
526 339 514T398 480Q441 444 461 388T483 260H64ZM452 285Q446 389 396 444T265 499Q223 499 187 484T125 441T84 374T65 285H452ZM283 597H254L171 721H211L283 597Z" />
<glyph unicode="&#xe9;" glyph-name="eacute" horiz-adv-x="515" d="M64 260Q64 207 77 163T116 86T180 36T269 17Q340 17 384 52T447 152H477Q469 118 453 89T410 37T349 3T269 -10Q212 -10 168 10T94 67T49 153T34 262Q34 318 50 366T95 450T168 506T265 526Q306
526 339 514T398 480Q441 444 461 388T483 260H64ZM452 285Q446 389 396 444T265 499Q223 499 187 484T125 441T84 374T65 285H452ZM304 721H344L263 597H235L304 721Z" />
<glyph unicode="&#xea;" glyph-name="ecircumflex" horiz-adv-x="515" d="M64 260Q64 207 77 163T116 86T180 36T269 17Q340 17 384 52T447 152H477Q469 118 453 89T410 37T349 3T269 -10Q212 -10 168 10T94 67T49 153T34 262Q34 318 50 366T95 450T168 506T265
526Q306 526 339 514T398 480Q441 444 461 388T483 260H64ZM452 285Q446 389 396 444T265 499Q223 499 187 484T125 441T84 374T65 285H452ZM370 599H335L264 683H263L191 599H158L245 704H282L370 599Z" />
<glyph unicode="&#xeb;" glyph-name="edieresis" horiz-adv-x="515" d="M64 260Q64 207 77 163T116 86T180 36T269 17Q340 17 384 52T447 152H477Q469 118 453 89T410 37T349 3T269 -10Q212 -10 168 10T94 67T49 153T34 262Q34 318 50 366T95 450T168 506T265
526Q306 526 339 514T398 480Q441 444 461 388T483 260H64ZM452 285Q446 389 396 444T265 499Q223 499 187 484T125 441T84 374T65 285H452ZM204 644H174V709H204V644ZM352 644H322V709H352V644Z" />
<glyph unicode="&#xec;" glyph-name="igrave" horiz-adv-x="154" d="M98 597H70L-6 721H32L98 597ZM99 0H69V517H99V0Z" />
<glyph unicode="&#xed;" glyph-name="iacute" horiz-adv-x="154" d="M133 721H172L94 597H66L133 721ZM92 0H62V517H92V0Z" />
<glyph unicode="&#xee;" glyph-name="icircumflex" horiz-adv-x="154" d="M170 599H137L77 683H76L16 599H-15L59 704H96L170 599ZM93 0H63V517H93V0Z" />
<glyph unicode="&#xef;" glyph-name="idieresis" horiz-adv-x="154" d="M33 644H2V709H33V644ZM137 644H106V709H137V644ZM85 0H54V517H85V0Z" />
<glyph unicode="&#xf0;" glyph-name="eth" horiz-adv-x="537" d="M169 591L309 642Q286 663 264 681T218 715H261Q278 702 298 687T339 653L438 689L446 668L357 635Q385 606 412 570T459 489T491 390T504 270Q504 210 489 159T443 70T370 11T270 -10Q216 -10
173 11T98 68T51 153T34 258Q34 314 50 362T96 447T168 504T264 525Q324 525 374 497T453 418Q433 482 400 532T327 624L177 570L169 591ZM473 265Q473 315 459 357T417 431T351 481T264 499Q216 499 179 480T117 428T78 351T64 258Q64 208 78 164T119 87T184 35T270
16Q320 16 358 35T421 88T460 167T473 265Z" />
<glyph unicode="&#xf1;" glyph-name="ntilde" horiz-adv-x="498" d="M91 424H93Q104 443 121 461T160 494T212 516T279 525Q356 525 398 482T440 370V0H410V367Q410 433 374 465T274 498Q234 498 201 486T143 452T105 404T91 347V0H61V517H91V424ZM443 686Q464
686 480 678T511 660T540 642T572 634Q589 634 600 646T613 686H639Q637 646 619 627T572 607Q552 607 536 615T504 633T474 651T442 659Q426 659 415 647T402 607H376Q378 646 396 666T443 686Z" />
<glyph unicode="&#xf2;" glyph-name="ograve" horiz-adv-x="538" d="M269 -10Q214 -10 171 11T97 68T50 154T34 259Q34 314 50 363T96 448T170 505T269 526Q324 526 368 505T442 448T488 364T504 259Q504 203 488 154T442 69T368 11T269 -10ZM269 16Q314 16 351
33T416 83T458 160T473 259Q473 313 458 357T416 433T352 482T269 500Q224 500 187 483T122 434T80 358T64 259Q64 205 79 160T122 83T186 34T269 16ZM286 597H257L174 721H214L286 597Z" />
<glyph unicode="&#xf3;" glyph-name="oacute" horiz-adv-x="538" d="M269 -10Q214 -10 171 11T97 68T50 154T34 259Q34 314 50 363T96 448T170 505T269 526Q324 526 368 505T442 448T488 364T504 259Q504 203 488 154T442 69T368 11T269 -10ZM269 16Q314 16 351
33T416 83T458 160T473 259Q473 313 458 357T416 433T352 482T269 500Q224 500 187 483T122 434T80 358T64 259Q64 205 79 160T122 83T186 34T269 16ZM308 721H348L267 597H239L308 721Z" />
<glyph unicode="&#xf4;" glyph-name="ocircumflex" horiz-adv-x="538" d="M269 -10Q214 -10 171 11T97 68T50 154T34 259Q34 314 50 363T96 448T170 505T269 526Q324 526 368 505T442 448T488 364T504 259Q504 203 488 154T442 69T368 11T269 -10ZM269 16Q314
16 351 33T416 83T458 160T473 259Q473 313 458 357T416 433T352 482T269 500Q224 500 187 483T122 434T80 358T64 259Q64 205 79 160T122 83T186 34T269 16ZM376 599H341L270 683H269L197 599H164L251 704H288L376 599Z" />
<glyph unicode="&#xf5;" glyph-name="otilde" horiz-adv-x="538" d="M269 -10Q214 -10 171 11T97 68T50 154T34 259Q34 314 50 363T96 448T170 505T269 526Q324 526 368 505T442 448T488 364T504 259Q504 203 488 154T442 69T368 11T269 -10ZM269 16Q314 16 351
33T416 83T458 160T473 259Q473 313 458 357T416 433T352 482T269 500Q224 500 187 483T122 434T80 358T64 259Q64 205 79 160T122 83T186 34T269 16ZM206 686Q227 686 243 678T274 660T303 642T335 634Q352 634 363 646T376 686H402Q400 646 382 627T335 607Q315
607 299 615T267 633T237 651T205 659Q189 659 178 647T165 607H139Q141 646 159 666T206 686Z" />
<glyph unicode="&#xf6;" glyph-name="odieresis" horiz-adv-x="538" d="M269 -10Q214 -10 171 11T97 68T50 154T34 259Q34 314 50 363T96 448T170 505T269 526Q324 526 368 505T442 448T488 364T504 259Q504 203 488 154T442 69T368 11T269 -10ZM269 16Q314 16
351 33T416 83T458 160T473 259Q473 313 458 357T416 433T352 482T269 500Q224 500 187 483T122 434T80 358T64 259Q64 205 79 160T122 83T186 34T269 16ZM209 644H179V709H209V644ZM357 644H327V709H357V644Z" />
<glyph unicode="&#xf7;" glyph-name="divide" horiz-adv-x="540" d="M62 341H478V312H62V341ZM289 454H252V516H289V454ZM289 136H252V199H289V136Z" />
<glyph unicode="&#xf8;" glyph-name="oslash" horiz-adv-x="538" d="M267 -10Q216 -10 175 7T104 56L46 -11L29 5L90 74Q61 110 46 157T31 259Q31 314 47 363T93 448T168 505T267 526Q318 526 358 509T429 459L487 526L504 510L444 441Q473 406 487 360T502 259Q502
203 486 154T440 69T366 11T267 -10ZM62 259Q62 209 74 169T109 97L410 438Q383 467 346 483T267 500Q222 500 185 483T120 434T78 358T62 259ZM267 16Q312 16 349 33T414 83T456 160T471 259Q471 307 459 347T424 419L123 78Q180 16 267 16Z" />
<glyph unicode="&#xf9;" glyph-name="ugrave" horiz-adv-x="492" d="M401 89H399Q388 70 372 53T335 22T285 0T221 -9Q142 -9 100 34T57 147V517H88V150Q88 83 124 50T226 17Q265 17 297 30T352 64T388 114T401 173V517H431V0H401V89ZM267 597H238L155 721H195L267 597Z" />
<glyph unicode="&#xfa;" glyph-name="uacute" horiz-adv-x="492" d="M401 89H399Q388 70 372 53T335 22T285 0T221 -9Q142 -9 100 34T57 147V517H88V150Q88 83 124 50T226 17Q265 17 297 30T352 64T388 114T401 173V517H431V0H401V89ZM287 721H327L246 597H218L287 721Z" />
<glyph unicode="&#xfb;" glyph-name="ucircumflex" horiz-adv-x="492" d="M401 89H399Q388 70 372 53T335 22T285 0T221 -9Q142 -9 100 34T57 147V517H88V150Q88 83 124 50T226 17Q265 17 297 30T352 64T388 114T401 173V517H431V0H401V89ZM352 599H317L246 683H245L173
599H140L227 704H264L352 599Z" />
<glyph unicode="&#xfc;" glyph-name="udieresis" horiz-adv-x="492" d="M401 89H399Q388 70 372 53T335 22T285 0T221 -9Q142 -9 100 34T57 147V517H88V150Q88 83 124 50T226 17Q265 17 297 30T352 64T388 114T401 173V517H431V0H401V89ZM184 644H154V709H184V644ZM332
644H302V709H332V644Z" />
<glyph unicode="&#xfd;" glyph-name="yacute" horiz-adv-x="456" d="M224 -53Q210 -89 197 -111T168 -146T135 -164T94 -169Q78 -169 68 -167T49 -162V-134H50Q67 -141 95 -141Q112 -141 125 -138T150 -124T173 -94T196 -44L216 7L13 517H45L231 46H232L411 517H443L224
-53ZM528 721H568L487 597H459L528 721Z" />
<glyph unicode="&#xfe;" glyph-name="thorn" horiz-adv-x="539" d="M61 715H91V390H93Q120 456 171 491T290 526Q334 526 373 509T441 459T488 375T506 259Q506 200 490 151T445 66T376 11T287 -9Q216 -9 166 26T93 120H91V-166H61V715ZM286 17Q329 17 363 35T423
85T461 161T475 258Q475 318 461 363T421 438T360 483T285 499Q241 499 205 482T143 432T103 355T89 256Q89 201 103 157T142 82T204 34T286 17Z" />
<glyph unicode="&#xff;" glyph-name="ydieresis" horiz-adv-x="456" d="M224 -53Q210 -89 197 -111T168 -146T135 -164T94 -169Q78 -169 68 -167T49 -162V-134H50Q67 -141 95 -141Q112 -141 125 -138T150 -124T173 -94T196 -44L216 7L13 517H45L231 46H232L411
517H443L224 -53ZM428 644H398V709H428V644ZM576 644H546V709H576V644Z" />
<glyph unicode="&#x131;" glyph-name="dotlessi" horiz-adv-x="154" d="M92 0H62V517H92V0Z" />
<glyph unicode="&#x141;" glyph-name="Lslash" horiz-adv-x="555" d="M402 439L113 278V29H524V0H82V261L3 217V247L82 290V715H113V308L402 469V439Z" />
<glyph unicode="&#x142;" glyph-name="lslash" horiz-adv-x="190" d="M186 438L112 376V0H82V350L13 292V326L82 384V715H112V410L186 473V438Z" />
<glyph unicode="&#x152;" glyph-name="OE" horiz-adv-x="1072" d="M618 384H987V356H618V29H1027V0H586V103Q574 80 555 60T508 24T446 -1T368 -10Q297 -10 238 17T136 94T69 210T45 358Q45 438 69 505T135 622T237 698T368 726Q412 726 448 716T511 690T556 652T586
610V715H1017V687H618V384ZM368 19Q418 19 458 33T527 72T571 129T586 196V518Q585 556 569 589T523 646T454 683T368 697Q301 697 248 671T157 599T99 491T78 358Q78 287 98 225T156 118T247 46T368 19Z" />
<glyph unicode="&#x153;" glyph-name="oe" horiz-adv-x="912" d="M255 -11Q200 -11 159 10T90 67T48 153T34 258Q34 314 48 363T89 448T158 505T255 526Q297 526 331 514T391 479T434 425T462 357Q472 394 490 425T534 478T594 513T670 526Q720 526 756 509T819
459Q851 423 865 373T880 259H478Q478 206 490 161T527 84T587 34T674 16Q745 16 786 51T844 151H873Q866 117 851 88T811 36T752 2T674 -11Q587 -11 535 36T463 160Q443 85 392 37T255 -11ZM255 15Q300 15 335 32T395 82T433 160T447 259Q447 313 434 357T396
433T336 482T255 500Q210 500 175 483T115 434T77 357T64 258Q64 204 77 159T115 82T175 33T255 15ZM849 285Q843 388 797 443T670 499Q628 499 594 484T534 440T495 373T478 285H849Z" />
<glyph unicode="&#x160;" glyph-name="Scaron" horiz-adv-x="601" d="M310 755H273L179 858H215L292 775H293L370 858H404L310 755ZM63 227Q68 132 131 75T312 18Q361 18 400 30T468 64T511 117T526 188Q526 230 512 258T469 306T395 339T288 364Q233 374 191
388T119 423T74 475T59 548Q59 588 75 621T122 677T195 713T290 726Q399 726 461 671T534 525H502Q491 607 436 652T291 697Q197 697 144 657T91 549Q91 513 103 488T142 445T209 415T303 392Q361 381 408 368T488 332T540 275T558 190Q558 145 541 108T493 45T416
4T313 -11Q244 -11 193 7T106 57T52 132T30 227H63Z" />
<glyph unicode="&#x161;" glyph-name="scaron" horiz-adv-x="460" d="M58 159Q64 90 109 53T237 16Q315 16 357 48T399 135Q399 161 391 180T364 214T313 238T233 258Q139 274 94 304T48 395Q48 453 93 489T222 526Q268 526 301 515T356 483T391 436T409 377H379Q371
433 334 466T222 499Q146 499 112 470T78 395Q78 372 86 355T114 325T165 303T243 285Q290 277 325 266T383 237T417 195T429 135Q429 68 377 29T237 -10Q186 -10 148 3T84 38T44 92T28 159H58ZM502 598H465L378 702H413L484 618H485L556 702H590L502 598Z" />
<glyph unicode="&#x178;" glyph-name="Ydieresis" horiz-adv-x="592" d="M236 770H206V836H236V770ZM384 770H354V836H384V770ZM295 350H296L541 715H576L311 320V0H280V321L16 715H51L295 350Z" />
<glyph unicode="&#x17d;" glyph-name="Zcaron" horiz-adv-x="604" d="M322 755H285L191 858H227L304 775H305L382 858H416L322 755ZM61 715H543V686L72 30V28H563V0H35V31L505 686V687H61V715Z" />
<glyph unicode="&#x17e;" glyph-name="zcaron" horiz-adv-x="457" d="M74 28V27H424V0H38V28L374 489V490H56V517H413V491L74 28ZM512 598H475L388 702H423L494 618H495L566 702H600L512 598Z" />
<glyph unicode="&#x192;" glyph-name="florin" horiz-adv-x="348" d="M279 362H176L119 -36Q111 -99 87 -124T15 -150Q9 -150 1 -150T-13 -149V-122Q-7 -123 1 -123T15 -123Q49 -123 65 -103T90 -34L146 362H63V388H149L176 575Q185 636 209 662T283 689Q291 689
306 689T326 687V660Q321 661 306 661T283 662Q245 662 229 641T206 572L180 388H279V362Z" />
<glyph unicode="&#x2c6;" glyph-name="circumflex" horiz-adv-x="477" d="M345 599H310L239 683H238L166 599H133L220 704H257L345 599Z" />
<glyph unicode="&#x2c7;" glyph-name="caron" horiz-adv-x="477" d="M257 598H220L133 702H168L239 618H240L311 702H345L257 598Z" />
<glyph unicode="&#x2d8;" glyph-name="breve" horiz-adv-x="504" d="M260 604Q208 604 178 631T144 701H172Q177 672 198 653T260 633Q301 633 322 652T349 701H377Q374 659 344 632T260 604Z" />
<glyph unicode="&#x2d9;" glyph-name="dotaccent" d="M260 638H229V704H260V638Z" />
<glyph unicode="&#x2da;" glyph-name="ring" horiz-adv-x="513" d="M256 571Q221 571 198 594T175 652Q175 687 198 709T256 732Q291 732 314 710T337 652Q337 617 314 594T256 571ZM256 593Q282 593 297 609T312 652Q312 677 297 693T256 710Q230 710 215 694T200
652Q200 626 215 610T256 593Z" />
<glyph unicode="&#x2db;" glyph-name="ogonek" horiz-adv-x="510" d="M260 0Q218 -23 196 -46T174 -97Q174 -119 189 -133T236 -148Q252 -148 263 -146T285 -138H288V-162Q279 -167 266 -170T234 -173Q187 -173 165 -152T143 -98Q143 -66 166 -42T222 0H260Z" />
<glyph unicode="&#x2dc;" glyph-name="tilde" horiz-adv-x="508" d="M189 686Q210 686 226 678T257 660T286 642T318 634Q335 634 346 646T359 686H385Q383 646 365 627T318 607Q298 607 282 615T250 633T220 651T188 659Q172 659 161 647T148 607H122Q124 646
142 666T189 686Z" />
<glyph unicode="&#x2dd;" glyph-name="hungarumlaut" horiz-adv-x="489" d="M201 721H237L180 597H153L201 721ZM327 721H362L305 597H278L327 721Z" />
</font>
</defs>
</svg>
