<?xml version="1.0" standalone="no"?> <!DOCTYPE svg PUBLIC "-//W3C//DTD SVG 1.0//EN" "http://www.w3.org/TR/2001/REC-SVG-20010904/DTD/svg10.dtd" > <svg xmlns="http://www.w3.org/2000/svg" width="100%" height="100%">
<defs >
<font id="SC" horiz-adv-x="573" ><font-face
    font-family="SC Sans Web"
    units-per-em="1000"
    panose-1="2 13 8 4 3 5 2 12 2 3"
    ascent="818"
    descent="-182"
    alphabetic="0" />
<missing-glyph horiz-adv-x="500" />
<glyph unicode=" " glyph-name="space" horiz-adv-x="224" />
<glyph unicode="!" glyph-name="exclam" horiz-adv-x="284" d="M121 561L157 744H317L279 553L179 259H100L121 561ZM42 164H205L173 0H10L42 164Z" />
<glyph unicode="&quot;" glyph-name="quotedbl" horiz-adv-x="443" d="M354 744H487L431 458H298L354 744ZM146 744H279L223 458H90L146 744Z" />
<glyph unicode="#" glyph-name="numbersign" horiz-adv-x="618" d="M348 186H236L196 0H98L138 186H41L69 300H162L189 424H93L120 539H213L251 713H349L311 539H424L461 713H559L522 539H621L594 424H497L471 300H570L542 186H446L407 0H309L348 186ZM260 300H373L399
424H287L260 300Z" />
<glyph unicode="$" glyph-name="dollar" horiz-adv-x="638" d="M238 -2Q131 14 73 73T12 228H172Q183 140 261 118L297 303Q253 317 216 334T150 374T105 429T89 506Q89 554 108 593T163 661T251 706T370 722H379L395 800H458L441 716Q531 702 582 650T642 512H488Q484
542 467 564T418 598L386 433Q392 431 400 429Q440 416 477 399T543 356T588 297T605 218Q605 167 585 126T528 55T438 9T319 -8H300L278 -124H214L238 -2ZM440 199Q440 228 420 246T357 282L323 111Q374 112 407 135T440 199ZM250 529Q249 503 268 486T327 454L357
607Q302 605 277 583T250 529Z" />
<glyph unicode="%" glyph-name="percent" horiz-adv-x="919" d="M677 712H769L280 0H188L677 712ZM244 311Q208 311 177 323T124 357T89 412T76 486Q76 539 92 583T135 660T200 709T281 727Q357 727 402 681T447 551Q447 498 431 454T388 379T323 329T244 311ZM246
395Q267 395 283 410T310 451T328 507T334 569Q334 604 321 625T279 646Q258 646 242 631T215 590T197 534T191 472Q191 437 204 416T246 395ZM677 -18Q641 -18 610 -6T557 28T522 83T509 157Q509 210 525 254T568 331T633 381T713 399Q790 399 835 352T880 222Q880
169 864 125T820 50T756 0T677 -18ZM679 66Q700 66 716 81T743 122T760 178T766 241Q766 276 753 296T711 317Q690 317 674 302T647 261T630 205T624 143Q624 108 637 87T679 66Z" />
<glyph unicode="&amp;" glyph-name="ampersand" horiz-adv-x="711" d="M276 -14Q219 -14 171 -1T89 37T36 101T17 189Q17 236 32 273T74 340T139 393T223 433Q206 458 197 488T188 557Q188 598 203 633T246 694T314 735T405 750Q446 750 480 739T540 708T579 658T593
590Q593 554 580 524T543 470T487 426T419 394L449 347Q461 327 477 298T504 249Q520 278 531 310T549 371H682Q668 306 644 248T581 141L671 0H495L484 17Q480 23 477 28T470 40Q431 16 383 1T276 -14ZM295 108Q327 108 353 116T403 140L278 344Q230 320 206 284T182
206Q182 158 214 133T295 108ZM332 565Q332 516 368 475Q416 497 435 524T455 583Q455 612 440 627T401 643Q369 643 351 622T332 565Z" />
<glyph unicode="&apos;" glyph-name="quotesingle" horiz-adv-x="235" d="M146 744H279L223 458H90L146 744Z" />
<glyph unicode="(" glyph-name="parenleft" horiz-adv-x="360" d="M157 -141Q115 -71 88 20T61 216Q61 305 81 386T137 540T220 673T322 784H455Q345 659 281 513T217 189Q217 96 233 13T277 -141H157V-141Z" />
<glyph unicode=")" glyph-name="parenright" horiz-adv-x="360" d="M-71 -141Q-16 -78 28 -11T104 130T151 284T168 454Q168 547 152 630T107 784H228Q270 714 297 623T324 427Q324 338 304 257T248 103T165 -30T63 -141H-71V-141Z" />
<glyph unicode="*" glyph-name="asterisk" horiz-adv-x="465" d="M118 424L212 531L103 571L144 651L255 611L282 744H374L347 611L467 650L486 568L355 528L414 420L335 371L279 482L183 371L118 424Z" />
<glyph unicode="+" glyph-name="plus" horiz-adv-x="595" d="M81 403H260L298 598H429L391 403H572L548 281H367L329 84H198L236 281H57L81 403Z" />
<glyph unicode="," glyph-name="comma" horiz-adv-x="250" d="M-28 -114Q9 -109 34 -84T68 -4L69 0H-7L25 164H189L155 -9Q146 -55 129 -86T86 -138T29 -168T-41 -181L-28 -114Z" />
<glyph unicode="-" glyph-name="hyphen" horiz-adv-x="357" d="M54 331H332L306 199H28L54 331Z" />
<glyph unicode="." glyph-name="period" horiz-adv-x="250" d="M25 164H189L157 0H-7L25 164Z" />
<glyph unicode="/" glyph-name="slash" horiz-adv-x="458" d="M408 784H552L48 -141H-96L408 784Z" />
<glyph unicode="0" glyph-name="zero" horiz-adv-x="679" d="M318 -17Q252 -17 201 4T116 64T64 156T46 274Q46 366 72 448T145 592T258 690T404 726Q468 726 517 706T601 648T654 557T672 440Q672 345 647 262T576 117T465 19T318 -17ZM321 108Q368 108 403 139T461
218T497 326T509 444Q509 519 482 561T397 603Q352 603 317 572T258 493T222 384T209 267Q209 191 235 150T321 108Z" />
<glyph unicode="1" glyph-name="one" horiz-adv-x="429" d="M234 468H72L92 574Q173 576 229 608T316 719H443L303 0H144L234 468Z" />
<glyph unicode="2" glyph-name="two" horiz-adv-x="599" d="M-21 0Q-10 78 20 127T92 213Q151 264 221 302T352 376Q397 402 425 432T453 510Q453 548 431 573T363 599Q338 599 319 594T284 572Q264 555 252 525T232 458H79Q90 525 108 568T156 644Q191 682 245
704T369 727Q430 727 476 711T554 667T600 600T616 518Q616 480 606 450T579 395T538 348T487 308Q455 284 419 265T346 226T275 185T213 135V133H537L511 0H-21V0Z" />
<glyph unicode="3" glyph-name="three" horiz-adv-x="643" d="M326 -17Q250 -17 195 3T101 61Q65 97 51 146T38 244H192Q192 217 198 193T219 149T261 118T325 106Q382 106 412 139T443 223Q443 265 416 291T336 318H291L312 429H348Q411 429 444 451T477 525Q477
563 453 586T381 610Q325 610 294 576T253 488H98Q114 601 190 664T392 727Q441 727 486 716T564 681T618 622T638 539Q638 474 601 433T493 373V371Q545 354 576 313T607 217Q607 158 585 115T525 42T436 -2T326 -17Z" />
<glyph unicode="4" glyph-name="four" horiz-adv-x="639" d="M343 161H16L44 303L453 720H607L520 278H623L601 161H497L466 0H312L343 161ZM147 274Q165 275 183 276Q198 277 215 277T248 278H366L401 455Q403 471 407 489T417 524Q422 542 428 562H426Q412 544
397 526Q384 511 370 495T341 464L247 368Q233 354 216 338T183 308Q165 291 147 276V274Z" />
<glyph unicode="5" glyph-name="five" horiz-adv-x="619" d="M297 -17Q234 -17 184 -1T97 44T41 114T18 202H178Q184 162 212 136T295 110Q323 110 347 120T389 150T417 196T427 256Q427 304 400 335T324 366Q289 367 258 352T209 314H61L194 712H619L595 584H287L235
429H237Q260 452 295 467T385 482Q421 482 457 470T522 430T569 362T588 263Q588 198 567 147T507 59T415 3T297 -17Z" />
<glyph unicode="6" glyph-name="six" horiz-adv-x="640" d="M312 102Q342 102 368 113T413 145T443 194T454 256Q454 309 421 341T338 373Q307 373 280 363T234 333T203 286T191 226Q191 172 224 137T312 102ZM317 -17Q189 -17 118 59Q46 134 46 278Q46 330 56
383T85 487T132 580T197 654Q239 689 289 708T405 727Q460 727 502 713T573 673T619 615T639 544H487Q485 557 480 569T464 592T438 608T400 614Q335 614 288 560T215 413H217Q248 447 289 466T385 485Q431 485 471 469T541 423T588 353T605 262Q605 202 583 151T522
63T431 4T317 -17Z" />
<glyph unicode="7" glyph-name="seven" horiz-adv-x="564" d="M83 0Q102 97 140 184T229 346T335 480T448 581V583Q422 581 393 580Q368 578 338 578T278 577H89L116 712H627L604 590Q545 542 489 479T386 341T304 180T251 0H83V0Z" />
<glyph unicode="8" glyph-name="eight" horiz-adv-x="635" d="M306 100Q367 100 403 134T439 226Q439 272 406 300T316 329Q255 329 218 296T181 206Q181 157 215 129T306 100ZM365 428Q417 428 447 455T477 528Q477 568 450 592T373 617Q322 617 291 589T260
515Q260 473 289 451T365 428ZM307 -18Q245 -18 193 -3T102 40T42 108T20 198Q20 279 68 327T192 393V396Q151 418 130 452T109 527Q109 572 129 609T184 672T268 712T374 727Q431 727 478 714T558 677T610 617T628 539Q628 481 596 437T494 374V371Q547 349 573
306T599 212Q599 156 577 113T515 41T423 -3T307 -18Z" />
<glyph unicode="9" glyph-name="nine" horiz-adv-x="642" d="M338 340Q369 340 396 350T443 381T474 428T486 491Q486 547 453 578T368 609Q336 609 310 598T264 566T234 518T223 457Q223 404 253 372T338 340ZM283 -18Q225 -18 180 -3T103 38T53 99T32 177H184Q186
162 192 148T210 123T240 105T283 98Q333 98 374 132Q401 155 423 195T460 295L458 296Q427 264 385 245T294 225Q247 225 206 241T135 287T88 358T70 447Q70 508 93 559T156 647T252 706T372 727Q431 727 475 712T551 670Q593 636 614 585T635 456Q635 398 625
339T594 225T545 124T477 46Q435 12 388 -3T283 -18Z" />
<glyph unicode=":" glyph-name="colon" horiz-adv-x="256" d="M91 485H254L223 321H59L91 485ZM28 164H192L160 0H-4L28 164Z" />
<glyph unicode=";" glyph-name="semicolon" horiz-adv-x="256" d="M91 485H254L223 321H59L91 485ZM-25 -114Q12 -109 37 -84T71 -4L72 0H-4L28 164H192L158 -9Q149 -55 132 -86T89 -138T32 -168T-38 -181L-25 -114Z" />
<glyph unicode="&lt;" glyph-name="less" horiz-adv-x="531" d="M53 253L81 397L533 573L506 430L327 367Q303 358 277 350T227 336Q201 329 175 323V321Q198 314 222 306Q242 299 265 291T309 274L463 209L435 70L53 253Z" />
<glyph unicode="=" glyph-name="equal" horiz-adv-x="592" d="M105 489H582L559 370H82L105 489ZM64 275H541L517 156H41L64 275Z" />
<glyph unicode="&gt;" glyph-name="greater" horiz-adv-x="531" d="M51 213L230 276Q253 284 279 292T329 307Q355 314 381 320V322Q359 328 335 336Q315 343 291 351T247 369L93 434L121 573L503 390L475 246L23 70L51 213Z" />
<glyph unicode="?" glyph-name="question" horiz-adv-x="569" d="M166 164H330L298 0H134L166 164ZM196 259Q202 295 211 321T234 366T266 401T308 432Q330 447 353 458T394 483T424 515T436 561Q436 593 413 611T347 630Q299 630 265 600T222 511H69Q85 628 158
692T359 756Q410 756 454 744T530 709T581 650T599 567Q599 532 590 505T566 457T532 421T494 393Q471 378 453 368T421 351T395 337T375 323Q358 310 351 296T338 259H196Z" />
<glyph unicode="@" glyph-name="at" horiz-adv-x="932" d="M409 98Q342 98 301 145T260 273Q260 327 275 374T317 455T381 509T462 529Q507 529 533 510T572 455H574L586 518H717L665 250Q657 212 665 194T703 175Q721 175 740 185T776 219T804 282T815 381Q815
450 793 502T729 588T632 640T506 657Q432 657 367 631T252 555T175 434T146 273Q146 207 166 152T226 56T323 -7T456 -30Q501 -30 545 -21T634 3L660 -74Q611 -94 561 -103T459 -113Q370 -113 295 -87T164 -11T77 111T46 275Q46 387 85 474T190 621T338 712T510
743Q591 743 663 720T790 650T876 536T908 379Q908 307 891 253T844 164T775 110T692 92Q632 92 594 114T546 182H543Q519 140 487 119T409 98ZM454 197Q497 197 525 238T553 349Q553 384 537 407T491 430Q469 430 452 419T423 387T405 340T398 282Q398 246 411
222T454 197Z" />
<glyph unicode="A" glyph-name="A" horiz-adv-x="722" d="M367 744H541L660 0H487L469 143H205L132 0H-40L367 744ZM267 262H455L438 399Q434 427 433 463T430 532Q429 570 429 610H427Q413 572 398 535Q385 503 370 468T340 404L267 262Z" />
<glyph unicode="B" glyph-name="B" horiz-adv-x="697" d="M157 744H470Q525 744 566 731T634 693Q685 647 685 571Q685 438 552 395V391Q608 375 639 335T671 237Q671 177 647 131T580 52Q544 25 498 13T392 0H12L157 744ZM391 131Q448 131 477 161T507 242Q507
284 479 306T409 328H241L203 131H391ZM414 444Q461 444 491 467T521 540Q521 573 498 594T435 615H297L264 444H414Z" />
<glyph unicode="C" glyph-name="C" horiz-adv-x="735" d="M375 -17Q301 -17 242 5T139 71T73 175T50 313Q50 406 79 487T161 628T287 722T450 757Q520 757 572 739T662 688Q706 650 725 600T746 493H580Q577 519 568 542T542 582T500 609T440 619Q387 619 346
593T278 523T236 426T222 317Q222 226 260 173T380 120Q443 120 487 158T545 260H715Q699 189 671 140T597 54Q555 19 501 1T375 -17Z" />
<glyph unicode="D" glyph-name="D" horiz-adv-x="734" d="M159 744H434Q507 744 562 721T656 658T713 563T733 444Q733 344 706 262T628 122T501 32T329 0H14L159 744ZM332 139Q388 139 431 160T503 219T548 313T563 436Q563 513 527 559T408 606H300L208 139H332Z" />
<glyph unicode="E" glyph-name="E" horiz-adv-x="658" d="M157 744H705L678 606H297L267 453H597L571 321H241L207 143H594L566 0H12L157 744Z" />
<glyph unicode="F" glyph-name="F" horiz-adv-x="628" d="M157 744H692L664 602H296L264 436H572L546 300H237L179 0H12L157 744Z" />
<glyph unicode="G" glyph-name="G" horiz-adv-x="768" d="M340 -16Q256 -16 199 12T105 94Q75 135 61 188T46 300Q46 361 59 418T96 526T156 618T235 690Q284 725 340 741T462 757Q528 757 579 740T666 691T724 614T751 515H583Q577 560 546 590T450 620Q391 620
348 592T275 518T232 418T217 308Q217 217 256 168T373 118Q411 118 444 130T502 163T545 211T567 270L568 274H418L443 398H748L670 0H555L560 99H557Q522 45 465 15T340 -16Z" />
<glyph unicode="H" glyph-name="H" horiz-adv-x="733" d="M156 744H323L267 456H542L598 744H765L620 0H453L515 317H240L178 0H11L156 744Z" />
<glyph unicode="I" glyph-name="I" horiz-adv-x="292" d="M157 744H325L180 0H12L157 744Z" />
<glyph unicode="J" glyph-name="J" horiz-adv-x="568" d="M241 -14Q178 -14 131 2T55 50T15 129T17 240L25 282H178L170 234Q159 175 178 150T241 124Q280 124 303 150T334 218L437 744H604L498 200Q480 110 426 53Q395 21 348 4T241 -14Z" />
<glyph unicode="K" glyph-name="K" horiz-adv-x="708" d="M314 336L229 261L179 0H12L157 744H324L300 622Q289 571 278 524T259 446L589 744H790L444 436L663 0H481L314 336Z" />
<glyph unicode="L" glyph-name="L" horiz-adv-x="593" d="M157 744H324L207 143H542L514 0H12L157 744Z" />
<glyph unicode="M" glyph-name="M" horiz-adv-x="867" d="M157 744H378L409 435Q412 400 413 354T415 265V165H418Q433 213 450 261Q464 302 481 346T516 426L670 744H900L755 0H603L666 325Q672 360 682 410T704 506Q716 560 729 617H727Q708 567 690 519Q674
477 656 432T622 354L451 0H314L278 354Q275 387 274 431T271 518Q270 566 270 617H268Q261 560 253 506Q246 460 239 410T224 325L161 0H12L157 744Z" />
<glyph unicode="N" glyph-name="N" horiz-adv-x="739" d="M157 744H328L455 410Q466 381 477 346T497 279Q508 243 518 206H520Q525 247 530 287Q535 322 540 361T552 433L613 744H772L627 0H456L330 330Q319 359 307 395T286 463Q275 500 265 537H263Q259 495
254 455Q249 420 244 381T232 309L172 0H12L157 744Z" />
<glyph unicode="O" glyph-name="O" horiz-adv-x="784" d="M380 -18Q304 -18 243 6T138 75T72 180T48 315Q48 406 77 486T160 627T288 722T452 757Q528 757 588 733T692 665T758 560T781 426Q781 333 752 252T671 111T544 17T380 -18ZM384 118Q439 118 481 143T552
212T595 310T610 425Q610 470 599 506T567 569T515 609T443 624Q389 624 348 598T278 528T234 430T219 317Q219 273 229 237T260 174T312 133T384 118Z" />
<glyph unicode="P" glyph-name="P" horiz-adv-x="675" d="M157 744H461Q527 744 574 726T649 675Q673 646 687 609T701 526Q701 462 681 412T623 328T534 277T419 259H232L181 0H12L157 744ZM258 391H405Q465 391 498 424T531 514Q531 553 508 577T437 602H299L258 391Z" />
<glyph unicode="Q" glyph-name="Q" horiz-adv-x="784" d="M560 24Q521 4 476 -7T380 -18Q304 -18 243 6T138 75T72 180T48 315Q48 406 77 486T160 627T288 722T452 757Q528 757 588 733T692 665T758 560T781 426Q781 324 748 239T653 92L726 15L643 -64L560 24ZM384
118Q405 118 424 121T460 131L378 219L459 298L549 202Q580 246 595 304T610 425Q610 470 599 506T567 569T515 609T443 624Q389 624 348 598T278 528T234 430T219 317Q219 273 229 237T260 174T312 133T384 118Z" />
<glyph unicode="R" glyph-name="R" horiz-adv-x="697" d="M157 744H463Q517 744 562 729T639 686T686 617T696 525Q689 458 649 413T531 345V342Q580 326 603 293T627 203Q627 162 624 123T621 55Q621 15 633 9V0H472Q467 4 463 17T459 49Q459 78 462 115T466
192Q466 237 442 261T357 285H234L179 0H12L157 744ZM258 409H402Q462 409 493 436T529 510Q531 532 527 551T512 583T481 604T431 612H298L258 409Z" />
<glyph unicode="S" glyph-name="S" horiz-adv-x="671" d="M336 -18Q181 -18 98 49T11 235H181Q189 176 225 146T337 115Q393 115 428 139T464 207Q464 227 455 241T426 267T378 290T314 313Q267 329 227 346T156 388T109 445T91 527Q91 578 110 620T165 693T256
740T380 757Q509 757 582 699T664 535H500Q495 578 463 604T374 631Q320 631 290 609T259 551Q259 533 268 519T298 493T349 470T420 445Q463 431 502 413T572 370T619 310T637 226Q637 173 616 128T556 51T462 0T336 -18Z" />
<glyph unicode="T" glyph-name="T" horiz-adv-x="657" d="M121 744H724L696 602H477L361 0H194L310 602H93L121 744Z" />
<glyph unicode="U" glyph-name="U" horiz-adv-x="710" d="M336 -14Q262 -14 205 5T110 61T60 153T60 280L151 744H317L224 265Q212 199 238 160T342 121Q404 121 441 154T490 251L586 744H753L655 239Q630 109 552 48T336 -14Z" />
<glyph unicode="V" glyph-name="V" horiz-adv-x="677" d="M104 744H273L308 396Q311 364 313 324T316 246Q317 203 318 159H320Q335 200 350 240Q363 275 378 313T410 384L588 744H762L375 0H201L104 744Z" />
<glyph unicode="W" glyph-name="W" horiz-adv-x="977" d="M104 744H271L283 470Q285 429 284 376T280 273Q277 216 274 156H276Q292 214 310 269Q325 317 342 368T377 459L497 744H655L664 460Q665 421 665 369T664 269Q663 214 662 156H664Q679 216 697 273Q711
322 729 376T765 471L884 744H1055L710 0H547L536 313Q535 348 536 392T539 478Q541 526 544 574H542Q527 526 512 478Q499 437 484 393T454 313L321 0H158L104 744Z" />
<glyph unicode="X" glyph-name="X" horiz-adv-x="716" d="M286 390L131 744H315L354 644Q362 622 370 596T385 547Q393 520 400 493H402Q418 520 436 546Q451 569 469 595T504 643L583 744H773L483 389L650 0H460L411 131Q403 153 396 179T382 229Q375 256 369
284H367Q350 257 332 230Q317 207 299 181T263 131L163 0H-34L286 390Z" />
<glyph unicode="Y" glyph-name="Y" horiz-adv-x="692" d="M265 278L107 744H283L331 588Q339 562 346 532T359 474Q366 442 372 411H374Q391 442 409 474Q424 501 443 531T479 588L589 744H772L433 282L378 0H211L265 278Z" />
<glyph unicode="Z" glyph-name="Z" horiz-adv-x="673" d="M12 135L346 473Q366 493 391 516T440 559Q466 582 493 605L494 608Q466 606 438 605Q414 604 387 604T339 603H129L157 744H716L690 613L368 286Q345 263 318 238T265 190Q236 164 206 140V137Q235 138
265 140Q290 141 318 142T370 143H613L585 0H-15L12 135Z" />
<glyph unicode="[" glyph-name="bracketleft" horiz-adv-x="427" d="M172 784H487L464 664H295L162 -22H331L307 -141H-7L172 784Z" />
<glyph unicode="\" glyph-name="backslash" horiz-adv-x="425" d="M98 784H234L386 -141H250L98 784Z" />
<glyph unicode="]" glyph-name="bracketright" horiz-adv-x="428" d="M-12 -22H156L289 664H122L145 784H460L280 -141H-35L-12 -22Z" />
<glyph unicode="^" glyph-name="asciicircum" horiz-adv-x="495" d="M281 744H404L517 438H378L319 601H317L195 438H50L281 744Z" />
<glyph unicode="_" glyph-name="underscore" horiz-adv-x="437" d="M-67 -80H374L355 -176H-86L-67 -80Z" />
<glyph unicode="`" glyph-name="grave" horiz-adv-x="528" d="M196 773H368L406 612H297L196 773Z" />
<glyph unicode="a" glyph-name="a" horiz-adv-x="568" d="M169 -14Q94 -14 49 26T4 134Q4 183 22 214T72 265T149 293T248 308Q325 315 356 331T388 383Q388 409 368 426T309 444Q268 444 242 425T208 371H64Q79 451 143 499T314 547Q439 547 492 488T525 324L485
118Q475 68 478 44T491 9L490 0H344Q338 13 335 29T331 65H328Q301 29 262 8T169 -14ZM231 81Q283 81 313 111T352 186L367 258Q353 250 340 245T312 237T281 231T246 224Q199 215 178 197T156 144Q156 110 178 96T231 81Z" />
<glyph unicode="b" glyph-name="b" horiz-adv-x="612" d="M145 744H298L266 581Q260 549 253 518T239 463H242Q272 503 312 525T405 548Q449 548 483 531T541 484T577 413T590 322Q590 248 571 186T517 78T435 8T331 -18Q266 -18 224 10T165 81H162L147 0H0L145
744ZM298 102Q328 102 353 119T395 164T423 231T433 312Q433 366 409 396T337 426Q304 426 278 409T234 365T206 301T196 228Q196 175 222 139T298 102Z" />
<glyph unicode="c" glyph-name="c" horiz-adv-x="567" d="M272 -18Q216 -18 171 -2T93 46T42 121T24 221Q24 291 45 350T106 453T201 522T323 547Q377 547 418 532T489 491T534 428T554 350H405Q400 387 380 410T319 433Q285 433 259 415T215 367T188 297T179
214Q179 157 203 127T273 97Q357 97 386 198H539Q516 89 446 36T272 -18Z" />
<glyph unicode="d" glyph-name="d" horiz-adv-x="611" d="M215 -18Q171 -17 135 -1T74 47T35 122T23 224Q25 302 47 362T105 464T188 526T286 547Q349 547 387 521T446 452H448Q449 460 453 492T468 579L501 744H654L509 0H362L375 69H373Q346 28 307 5T215 -18ZM272
103Q304 103 329 118T373 159T402 219T415 293Q417 352 393 389T317 427Q287 428 263 414T220 374T192 312T180 233Q178 174 200 139T272 103Z" />
<glyph unicode="e" glyph-name="e" horiz-adv-x="584" d="M277 -16Q215 -16 168 2T89 53T41 130T25 225Q25 293 47 352T108 454T202 523T322 548Q382 548 427 529T501 475T545 395T560 295Q560 278 559 261T555 227H171V225Q171 163 199 129T285 94Q317 94 342
108T381 150H535Q503 71 437 28T277 -16ZM319 439Q292 439 271 430T232 404T203 364T183 315H411Q418 372 394 405T319 439Z" />
<glyph unicode="f" glyph-name="f" horiz-adv-x="387" d="M73 532H150L160 584Q169 632 184 660T226 709Q249 727 284 736T362 744Q382 744 403 742T446 734L427 626Q368 632 343 623T311 573L303 532H412L393 433H284L200 0H46L130 433H54L73 532Z" />
<glyph unicode="g" glyph-name="g" horiz-adv-x="602" d="M236 -185Q127 -185 62 -141T-10 -19H140Q148 -43 169 -60T238 -78Q291 -78 318 -51T355 24L358 39Q361 56 365 74T375 107H372Q345 72 311 53T233 33Q191 33 155 48T92 91T51 159T36 248Q36 314 55 369T108
464T188 526T287 548Q344 548 382 524T438 452H440L456 532H603L505 27Q493 -32 470 -72T412 -138T333 -174T236 -185ZM284 145Q317 145 342 160T384 199T409 255T418 317Q418 368 393 399T316 430Q287 430 264 417T223 380T197 325T187 259Q187 207 212 176T284
145Z" />
<glyph unicode="h" glyph-name="h" horiz-adv-x="593" d="M145 744H298L260 546Q258 534 253 508T242 456H244Q275 499 316 523T414 548Q455 548 486 531T535 484T560 415T558 330L493 0H340L402 319Q410 364 394 392T332 420Q288 420 256 388T212 301L153 0H0L145 744Z" />
<glyph unicode="i" glyph-name="i" horiz-adv-x="257" d="M105 532H259L155 0H2L105 532ZM146 744H302L275 607H119L146 744Z" />
<glyph unicode="j" glyph-name="j" horiz-adv-x="257" d="M-30 -181Q-53 -181 -76 -178T-116 -170L-97 -64H-92Q-84 -65 -77 -65T-63 -66Q-35 -65 -21 -55T-1 -14L105 532H259L151 -26Q142 -71 126 -101T86 -149T33 -174T-30 -181ZM146 744H302L275 607H119L146 744Z" />
<glyph unicode="k" glyph-name="k" horiz-adv-x="574" d="M145 744H297L252 516Q240 456 230 413T213 343L418 532H601L368 327L518 0H350L250 233L186 178L152 0H0L145 744Z" />
<glyph unicode="l" glyph-name="l" horiz-adv-x="260" d="M148 744H302L157 0H3L148 744Z" />
<glyph unicode="m" glyph-name="m" horiz-adv-x="894" d="M103 532H250L234 444H236Q271 493 310 520T406 548Q457 548 489 521T532 443H534Q615 548 717 548Q758 548 788 532T837 488T861 421T859 338L793 0H640L704 329Q712 373 697 397T641 421Q600 421 572
391T533 306L473 0H319L383 328Q391 373 376 397T322 421Q282 421 253 391T213 306L153 0H0L103 532Z" />
<glyph unicode="n" glyph-name="n" horiz-adv-x="593" d="M103 532H251L234 446H237Q269 495 313 521T414 548Q455 548 486 531T535 484T560 415T558 330L493 0H340L402 319Q410 364 394 392T332 420Q288 420 256 388T212 301L153 0H0L103 532Z" />
<glyph unicode="o" glyph-name="o" horiz-adv-x="604" d="M278 -17Q220 -17 173 1T93 53T43 132T25 232Q25 298 48 356T111 456T208 523T330 548Q387 548 433 530T513 478T565 400T583 301Q583 233 560 175T497 74T400 7T278 -17ZM283 93Q316 93 343 110T388 157T417
223T427 301Q427 367 400 403T324 439Q291 439 265 421T220 374T191 307T181 229Q181 164 207 129T283 93Z" />
<glyph unicode="p" glyph-name="p" horiz-adv-x="614" d="M331 -18Q265 -18 224 9T166 79H163Q162 71 159 39T144 -47L119 -177H-34L103 532H251L237 461H240Q269 502 311 525T405 548Q449 548 483 531T541 484T577 413T590 322Q590 248 571 186T517 78T435 8T331
-18ZM298 102Q328 102 353 119T395 164T423 231T433 312Q433 366 409 396T337 426Q304 426 278 409T234 365T206 301T196 228Q196 175 222 139T298 102Z" />
<glyph unicode="q" glyph-name="q" horiz-adv-x="611" d="M215 -18Q173 -18 138 -3T77 41T37 113T22 212Q22 290 43 352T100 458T183 525T284 548Q347 548 386 522T446 448H449L465 532H613L475 -177H322L347 -47Q355 -4 362 25T375 69H372Q346 30 308 6T215 -18ZM275
103Q308 103 334 119T378 163T406 227T416 303Q416 359 391 393T315 427Q284 427 259 411T216 368T189 303T179 223Q179 166 203 135T275 103Z" />
<glyph unicode="r" glyph-name="r" horiz-adv-x="401" d="M103 532H250L231 431H234Q266 491 306 515T395 540Q419 540 427 536L404 400H400Q383 403 367 403Q302 404 260 366T202 248L153 0H0L103 532Z" />
<glyph unicode="s" glyph-name="s" horiz-adv-x="531" d="M251 -17Q133 -17 67 31T-2 164H144Q148 125 175 104T249 83Q290 83 312 100T334 147Q334 162 325 173T300 192T262 206T212 220Q181 229 152 240T101 268T65 311T51 373Q51 415 67 447T114 502T185 536T275
548Q384 548 440 506T507 390H362Q357 419 335 434T274 450Q239 450 218 435T197 394Q197 380 205 371T229 355T267 342T317 328Q348 320 378 309T431 279T470 234T485 168Q485 123 468 89T420 31T346 -5T251 -17Z" />
<glyph unicode="t" glyph-name="t" horiz-adv-x="383" d="M71 532H148L181 702H332L299 532H400L381 434H280L229 167Q223 135 236 124T277 112Q286 112 296 113T313 115H318L298 3Q286 0 265 -3T212 -6Q176 -6 147 3T100 32T74 82T75 153L129 434H51L71 532Z" />
<glyph unicode="u" glyph-name="u" horiz-adv-x="589" d="M184 -16Q140 -16 108 0T57 46T33 115T36 203L99 532H253L190 208Q181 164 196 139T253 112Q302 111 333 141T376 226L435 532H589L485 0H337L351 73H349Q317 30 278 7T184 -16Z" />
<glyph unicode="v" glyph-name="v" horiz-adv-x="539" d="M58 532H211L234 322Q237 293 238 260T241 198Q242 165 242 132H245Q257 163 269 196Q280 224 293 255T320 315L426 532H586L301 0H134L58 532Z" />
<glyph unicode="w" glyph-name="w" horiz-adv-x="806" d="M59 532H212L225 329Q227 303 228 274T229 219V160H231Q240 188 250 216Q258 240 269 269T292 324L383 532H514L531 331Q533 305 534 276T536 220Q537 189 538 159H540Q547 187 556 215Q564 239 574 267T597
322L694 532H851L586 0H441L427 213Q425 237 425 265T426 320Q426 350 427 380H425Q414 351 403 323Q393 299 382 271T359 219L260 0H117L59 532Z" />
<glyph unicode="x" glyph-name="x" horiz-adv-x="582" d="M205 280L88 532H256L277 481Q283 465 289 446T300 410Q305 390 311 369H313Q325 389 338 409Q349 426 362 445T386 481L425 532H595L386 281L515 0H344L317 68Q311 85 305 105T294 144Q288 165 282 186H280L252
144Q240 126 226 106T197 68L142 0H-33L205 280Z" />
<glyph unicode="y" glyph-name="y" horiz-adv-x="547" d="M79 -178Q77 -178 62 -178T28 -178T-5 -177T-22 -176L1 -56H6Q6 -56 14 -56T31 -56T48 -57T58 -57Q94 -57 114 -42T143 0Q146 13 145 42T137 107L58 532H214L241 333Q245 304 247 271T252 208Q254 175
254 142H256Q268 173 280 206Q291 233 304 265T332 325L436 532H594L301 -13Q276 -59 253 -90T203 -141T147 -169T79 -178Z" />
<glyph unicode="z" glyph-name="z" horiz-adv-x="528" d="M6 114L233 332Q248 346 266 361T300 389Q318 404 337 418V421Q317 419 297 417Q280 415 260 415T224 414H88L111 532H533L513 422L293 211Q276 195 257 179T219 148Q198 131 177 116L176 112Q197 114
219 116Q238 118 259 119T299 120H468L444 0H-16L6 114Z" />
<glyph unicode="{" glyph-name="braceleft" horiz-adv-x="431" d="M291 -141Q232 -141 190 -130T122 -94T90 -29T93 68L117 193Q125 233 109 253T40 276L61 390Q115 392 138 408T170 462L198 605Q208 659 226 693T274 748T343 776T438 784H490L467 664H439Q395
664 373 650T343 592L312 433Q302 383 278 361T208 327V324Q248 309 262 282T266 202L237 53Q229 8 246 -7T303 -22H334L311 -141H291V-141Z" />
<glyph unicode="|" glyph-name="bar" horiz-adv-x="238" d="M82 784H180V-141H82V784Z" />
<glyph unicode="}" glyph-name="braceright" horiz-adv-x="429" d="M-12 -22H17Q62 -22 83 -7T113 52L144 213Q154 263 178 285T247 319V322Q208 337 194 364T190 445L218 590Q226 635 209 649T152 664H121L145 784H165Q224 784 266 773T334 737T366 672T362 575L338
453Q330 413 347 393T416 371L394 256Q341 254 317 238T285 184L258 39Q248 -15 230 -50T182 -105T112 -133T17 -141H-35L-12 -22Z" />
<glyph unicode="~" glyph-name="asciitilde" horiz-adv-x="459" d="M323 258Q299 258 279 265T242 280Q223 289 208 296T179 303Q162 303 152 290T138 254H39Q47 343 85 385T175 427Q200 427 219 420T254 404Q271 394 285 387T314 380Q349 380 354 427H452Q446
348 414 303T323 258Z" />
<glyph unicode="&#xa0;" glyph-name="uni00A0" horiz-adv-x="224" />
<glyph unicode="&#xa1;" glyph-name="exclamdown" horiz-adv-x="284" d="M24 59L123 353H202L182 51L146 -132H-14L24 59ZM129 612H292L260 448H97L129 612Z" />
<glyph unicode="&#xa2;" glyph-name="cent" horiz-adv-x="569" d="M210 -12Q124 4 74 64T23 221Q23 291 45 350T106 452T200 520T319 546L336 635H398L380 543Q423 536 455 518T510 474T546 416T562 346H413Q409 375 396 396T357 427L294 99Q359 111 385 200H538Q515
91 445 37T271 -18L250 -129H188L210 -12ZM178 214Q178 171 192 143T233 104L296 429Q269 422 248 402T211 353T187 289T178 214Z" />
<glyph unicode="&#xa3;" glyph-name="sterling" horiz-adv-x="610" d="M65 393H117Q109 419 104 447T98 504Q98 555 116 596T169 666T252 710T362 726Q493 726 559 661T628 471H473Q471 603 367 603Q317 603 291 571T264 488Q264 465 268 442T277 393H419L402
303H285Q284 276 277 254T255 211T217 173T160 136L161 133Q189 145 211 151T259 158Q283 158 303 153T340 143T375 132T412 127Q444 127 468 139T510 164L565 40Q532 16 489 1T406 -15Q367 -15 339 -7T286 11T237 29T182 38Q149 38 121 26T68 -2L2 119Q30 134
54 151T96 190T124 237T134 293V303H47L65 393Z" />
<glyph unicode="&#xa5;" glyph-name="yen" horiz-adv-x="664" d="M94 332H241L101 713H273L316 576Q324 551 332 521T346 464L360 401H362Q378 432 396 464Q411 490 429 520T465 576L561 713H739L449 332H597L585 269H411L396 196H570L558 133H384L358 0H204L230
133H56L68 196H242L257 269H82L94 332Z" />
<glyph unicode="&#xa6;" glyph-name="brokenbar" horiz-adv-x="238" d="M82 784H179L180 395H82V784ZM82 263H180V-141H82V263Z" />
<glyph unicode="&#xa7;" glyph-name="section" horiz-adv-x="653" d="M183 14Q186 -25 211 -48T287 -72Q325 -72 346 -55T367 -8Q367 8 357 21T328 49T280 79T214 116Q172 139 141 161T88 206T57 255T46 312Q46 378 88 414T204 465Q186 485 176 507T165 561Q165
604 182 637T229 694T299 729T387 741Q493 741 552 691T613 553H476Q473 584 453 605T387 627Q351 627 333 612T314 571Q314 554 322 541T346 516T388 491T446 459Q480 441 511 421T566 377T604 325T619 262Q619 228 607 203T575 160T527 131T468 112Q490 91 504
63T518 -1Q518 -48 501 -83T453 -142T381 -177T292 -189Q236 -189 190 -176T111 -136T60 -72T40 14H183ZM260 399Q229 394 210 380T191 338Q191 326 197 315T216 291T252 263T307 229L393 177Q424 183 446 196T469 239Q469 266 439 290T352 348L260 399Z" />
<glyph unicode="&#xa8;" glyph-name="dieresis" horiz-adv-x="528" d="M405 745H550L523 607H378L405 745ZM167 745H312L285 607H140L167 745Z" />
<glyph unicode="&#xa9;" glyph-name="copyright" horiz-adv-x="867" d="M455 -18Q375 -18 305 11T184 92T103 215T73 369Q73 453 102 524T183 646T305 727T455 757Q536 757 605 728T727 647T808 524T838 369Q838 286 809 215T727 92T606 11T455 -18ZM455 32Q524
32 583 57T686 128T753 235T778 369Q778 442 754 503T686 610T584 680T455 706Q386 706 327 681T225 610T157 504T132 369Q132 297 156 235T224 128T327 58T455 32ZM460 146Q412 146 372 163T304 210T260 281T244 372Q244 421 259 463T303 535T372 583T461 600Q496
600 526 591T580 566Q611 544 629 512T652 440H538Q533 466 514 485T460 504Q436 504 418 494T387 466T369 424T363 372Q363 315 389 279T462 242Q498 242 518 263T543 314H656Q651 241 603 196Q576 172 542 159T460 146Z" />
<glyph unicode="&#xaa;" glyph-name="ordfeminine" horiz-adv-x="528" d="M341 303Q317 271 283 252T201 232Q135 232 96 267T56 361Q56 407 71 436T115 482T183 508T271 519Q339 524 366 537T393 582Q393 605 377 619T325 633Q293 633 271 618T242 572H109Q123
642 180 684T332 727Q444 727 491 675T521 531L483 335Q475 297 478 279T490 253L488 245H353Q340 265 343 303H341ZM375 472Q350 458 327 454T269 443Q229 435 213 418T196 372Q196 346 212 334T256 321Q301 321 327 345T362 409L375 472Z" />
<glyph unicode="&#xab;" glyph-name="guillemotleft" horiz-adv-x="502" d="M268 200L296 343L489 490L462 351L346 265V263L426 167L401 40L268 200ZM47 200L75 343L267 490L240 351L124 265V263L204 167L180 40L47 200Z" />
<glyph unicode="&#xae;" glyph-name="registered" horiz-adv-x="658" d="M370 172Q309 172 256 194T164 255T103 347T80 464Q80 527 102 581T164 674T256 735T370 757Q430 757 482 735T574 674T635 581T658 464Q658 401 636 348T574 255T483 194T370 172ZM370
215Q421 215 464 234T540 286T590 364T608 464Q608 518 590 563T540 642T465 694T370 713Q318 713 275 695T199 643T149 564T131 464Q131 410 149 365T199 286T274 234T370 215ZM251 616H396Q441 616 472 594T504 530Q504 504 492 486T447 458V456Q473 449 482
438T496 402Q498 391 499 379T501 355T504 336T511 327V319H432Q425 323 424 344T419 388Q414 427 374 427H331V319H251V616ZM331 485H382Q424 485 424 520Q424 536 415 545T383 555H331V485Z" />
<glyph unicode="&#xaf;" glyph-name="macron" horiz-adv-x="528" d="M204 724H509L488 616H184L204 724Z" />
<glyph unicode="&#xb0;" glyph-name="degree" horiz-adv-x="430" d="M275 392Q240 392 209 405T154 440T116 493T102 558Q102 594 116 624T153 678T208 714T275 727Q309 727 340 714T395 678T432 625T446 558Q446 523 432 493T395 441T341 405T275 392ZM275 473Q312
473 333 498T354 558Q354 593 333 619T275 646Q237 646 216 620T195 558Q195 523 216 498T275 473Z" />
<glyph unicode="&#xb2;" glyph-name="twosuperior" horiz-adv-x="407" d="M18 286Q24 339 45 371T93 427Q135 462 180 486T261 532Q288 549 302 567T317 608Q317 629 305 643T266 658Q252 658 241 655T219 642Q208 631 202 614T193 578H74Q81 620 90 645T121 696Q144
722 179 738T267 754Q312 754 345 743T399 713T430 668T440 612Q440 569 421 540T372 489Q352 474 329 462T284 438T241 414T205 389V388H395L374 286H18V286Z" />
<glyph unicode="&#xb3;" glyph-name="threesuperior" horiz-adv-x="424" d="M245 275Q192 275 155 288T94 326Q69 350 60 383T53 445H169Q169 431 172 418T183 393T206 374T243 367Q275 367 292 385T309 427Q309 456 293 469T247 483H220L235 567H257Q289 567
308 579T328 620Q328 640 315 653T275 666Q240 666 223 647T199 600H83Q94 672 143 713T278 754Q311 754 341 747T396 725T434 687T449 632Q449 550 354 526V525Q388 516 409 489T431 429Q431 390 417 361T377 313T318 285T245 275Z" />
<glyph unicode="&#xb4;" glyph-name="acute" horiz-adv-x="528" d="M337 773H519L376 612H261L337 773Z" />
<glyph unicode="&#xb6;" glyph-name="paragraph" horiz-adv-x="593" d="M292 351H270Q228 351 195 363T139 399T103 454T93 525Q94 576 113 620T167 693Q227 744 328 744H626L454 -140H365L519 653H440L286 -140H197L292 351Z" />
<glyph unicode="&#xb7;" glyph-name="periodcentered" horiz-adv-x="253" d="M74 412H238L206 247H42L74 412Z" />
<glyph unicode="&#xb8;" glyph-name="cedilla" horiz-adv-x="528" d="M172 -209Q138 -209 112 -201T68 -179L88 -144Q120 -160 152 -160Q180 -160 196 -150T213 -120Q213 -107 204 -100T181 -93Q169 -93 160 -95T142 -100L129 -72L202 0H268L204 -53L205 -55Q247
-49 277 -65T308 -119Q308 -163 270 -186T172 -209Z" />
<glyph unicode="&#xb9;" glyph-name="onesuperior" horiz-adv-x="291" d="M171 567H67L83 650Q139 652 175 675T232 749H333L243 286H117L171 567Z" />
<glyph unicode="&#xba;" glyph-name="ordmasculine" horiz-adv-x="547" d="M297 231Q246 231 205 247T134 292T88 362T72 451Q72 509 92 559T148 646T233 705T342 727Q393 727 434 711T505 666T551 598T568 510Q568 450 548 399T491 310T405 252T297 231ZM302
331Q330 331 353 345T392 385T416 442T425 510Q425 566 403 597T338 628Q309 628 286 613T247 573T223 516T215 447Q215 392 237 362T302 331Z" />
<glyph unicode="&#xbb;" glyph-name="guillemotright" horiz-adv-x="502" d="M43 179L159 265V267L79 363L104 490L237 329L209 186L16 40L43 179ZM265 179L381 265V267L301 363L325 490L457 329L430 186L237 40L265 179Z" />
<glyph unicode="&#xbc;" glyph-name="onequarter" horiz-adv-x="908" d="M621 -11H403L425 98L687 354H812L758 76H822L805 -11H742L723 -110H602L621 -11ZM715 744H819L171 -130H68L715 744ZM174 567H70L86 650Q142 652 178 675T235 749H336L246 286H120L174
567ZM503 74Q516 74 528 75Q539 75 551 75T575 76H638L656 167Q658 178 661 191T667 216Q671 229 675 243H673Q663 231 652 219Q643 208 632 197T611 175L571 137Q560 126 548 116T526 96Q515 85 503 76V74Z" />
<glyph unicode="&#xbd;" glyph-name="onehalf" horiz-adv-x="944" d="M174 567H70L86 650Q142 652 178 675T235 749H336L246 286H120L174 567ZM706 744H810L162 -130H59L706 744ZM449 -110Q455 -57 476 -25T524 31Q566 66 611 90T692 136Q719 153 733 171T748
212Q748 233 736 247T697 262Q683 262 672 259T650 246Q639 235 633 218T624 182H505Q512 224 521 249T552 300Q575 326 610 342T698 358Q743 358 776 347T830 317T861 272T871 216Q871 173 852 144T803 93Q783 78 760 66T715 42T672 18T636 -7V-8H826L805 -110H449Z"
/>
<glyph unicode="&#xbe;" glyph-name="threequarters" horiz-adv-x="996" d="M709 -11H491L513 98L775 354H900L846 76H910L893 -11H830L811 -110H690L709 -11ZM248 275Q195 275 158 288T97 326Q72 350 63 383T56 445H172Q172 431 175 418T186 393T209 374T246
367Q278 367 295 385T312 427Q312 456 296 469T250 483H223L238 567H260Q292 567 311 579T331 620Q331 640 318 653T278 666Q243 666 226 647T202 600H86Q97 672 146 713T281 754Q314 754 344 747T399 725T437 687T452 632Q452 550 357 526V525Q391 516 412 489T434
429Q434 390 420 361T380 313T321 285T248 275ZM794 744H898L250 -130H147L794 744ZM591 74Q604 74 616 75Q627 75 639 75T663 76H726L744 167Q746 178 749 191T755 216Q759 229 763 243H761Q751 231 740 219Q731 208 720 197T699 175L659 137Q648 126 636 116T614
96Q603 85 591 76V74Z" />
<glyph unicode="&#xbf;" glyph-name="questiondown" horiz-adv-x="569" d="M290 612H454L422 448H258L290 612ZM229 -144Q177 -144 133 -132T57 -97T7 -38T-11 45Q-11 79 -2 106T22 154T55 191T94 219Q118 234 136 244T169 262T194 276T215 291Q230 304 237 317T250
353H392Q386 317 377 291T354 246T322 211T280 180Q257 165 235 154T194 129T164 97T152 51Q152 19 175 1T241 -18Q289 -18 323 12T366 101H519Q503 -16 430 -80T229 -144Z" />
<glyph unicode="&#xc0;" glyph-name="Agrave" horiz-adv-x="722" d="M325 916H497L525 785H416L325 916ZM367 744H541L660 0H487L469 143H205L132 0H-40L367 744ZM267 262H455L438 399Q434 427 433 463T430 532Q429 570 429 610H427Q413 572 398 535Q385 503 370
468T340 404L267 262Z" />
<glyph unicode="&#xc1;" glyph-name="Aacute" horiz-adv-x="722" d="M450 916H632L504 785H389L450 916ZM367 744H541L660 0H487L469 143H205L132 0H-40L367 744ZM267 262H455L438 399Q434 427 433 463T430 532Q429 570 429 610H427Q413 572 398 535Q385 503 370
468T340 404L267 262Z" />
<glyph unicode="&#xc2;" glyph-name="Acircumflex" horiz-adv-x="722" d="M406 916H556L640 785H514L477 849H475L417 785H277L406 916ZM367 744H541L660 0H487L469 143H205L132 0H-40L367 744ZM267 262H455L438 399Q434 427 433 463T430 532Q429 570 429 610H427Q413
572 398 535Q385 503 370 468T340 404L267 262Z" />
<glyph unicode="&#xc3;" glyph-name="Atilde" horiz-adv-x="722" d="M541 786Q518 786 500 793T467 808T439 823T415 830Q402 830 391 819T375 785H293Q301 856 335 891T412 926Q435 926 453 919T485 904T511 889T535 882Q566 882 575 924H658Q650 861 620 824T541
786ZM367 744H541L660 0H487L469 143H205L132 0H-40L367 744ZM267 262H455L438 399Q434 427 433 463T430 532Q429 570 429 610H427Q413 572 398 535Q385 503 370 468T340 404L267 262Z" />
<glyph unicode="&#xc4;" glyph-name="Adieresis" horiz-adv-x="722" d="M533 919H683L657 785H507L533 919ZM292 919H443L417 785H266L292 919ZM367 744H541L660 0H487L469 143H205L132 0H-40L367 744ZM267 262H455L438 399Q434 427 433 463T430 532Q429 570 429
610H427Q413 572 398 535Q385 503 370 468T340 404L267 262Z" />
<glyph unicode="&#xc5;" glyph-name="Aring" horiz-adv-x="722" d="M477 766Q454 766 434 774T398 797T373 832T364 876Q364 899 373 919T397 954T433 978T477 987Q500 987 520 978T556 954T580 919T589 876Q589 852 580 832T556 798T521 775T477 766ZM477 823Q500
823 514 838T529 876Q529 899 515 915T477 931Q454 931 440 915T425 876Q425 853 439 838T477 823ZM367 744H541L660 0H487L469 143H205L132 0H-40L367 744ZM267 262H455L438 399Q434 427 433 463T430 532Q429 570 429 610H427Q413 572 398 535Q385 503 370 468T340
404L267 262Z" />
<glyph unicode="&#xc6;" glyph-name="AE" horiz-adv-x="1026" d="M357 744H1070L1042 601H686L656 451H962L936 320H630L597 149H965L936 0H400L428 146H206L130 0H-40L357 744ZM267 264H451L517 601H442L267 264Z" />
<glyph unicode="&#xc7;" glyph-name="Ccedilla" horiz-adv-x="735" d="M275 -209Q241 -209 215 -201T171 -179L191 -144Q223 -160 255 -160Q283 -160 299 -150T316 -120Q316 -107 307 -100T284 -93Q272 -93 263 -95T245 -100L232 -72L295 -9Q182 13 116 96T50
313Q50 406 79 487T161 628T287 722T450 757Q520 757 572 739T662 688Q706 650 725 600T746 493H580Q577 519 568 542T542 582T500 609T440 619Q387 619 346 593T278 523T236 426T222 317Q222 226 260 173T380 120Q443 120 487 158T545 260H715Q699 189 671 140T597
54Q555 19 501 1T375 -17Q369 -17 363 -17T351 -16L307 -53L308 -55Q350 -49 380 -65T411 -119Q411 -163 373 -186T275 -209Z" />
<glyph unicode="&#xc8;" glyph-name="Egrave" horiz-adv-x="658" d="M303 916H475L503 785H394L303 916ZM157 744H705L678 606H297L267 453H597L571 321H241L207 143H594L566 0H12L157 744Z" />
<glyph unicode="&#xc9;" glyph-name="Eacute" horiz-adv-x="658" d="M428 916H610L482 785H367L428 916ZM157 744H705L678 606H297L267 453H597L571 321H241L207 143H594L566 0H12L157 744Z" />
<glyph unicode="&#xca;" glyph-name="Ecircumflex" horiz-adv-x="658" d="M384 916H534L618 785H492L455 849H453L395 785H255L384 916ZM157 744H705L678 606H297L267 453H597L571 321H241L207 143H594L566 0H12L157 744Z" />
<glyph unicode="&#xcb;" glyph-name="Edieresis" horiz-adv-x="658" d="M511 919H661L635 785H485L511 919ZM270 919H421L395 785H244L270 919ZM157 744H705L678 606H297L267 453H597L571 321H241L207 143H594L566 0H12L157 744Z" />
<glyph unicode="&#xcc;" glyph-name="Igrave" horiz-adv-x="292" d="M112 916H284L312 785H203L112 916ZM157 744H325L180 0H12L157 744Z" />
<glyph unicode="&#xcd;" glyph-name="Iacute" horiz-adv-x="292" d="M237 916H419L291 785H176L237 916ZM157 744H325L180 0H12L157 744Z" />
<glyph unicode="&#xce;" glyph-name="Icircumflex" horiz-adv-x="292" d="M193 916H343L427 785H301L264 849H262L204 785H64L193 916ZM157 744H325L180 0H12L157 744Z" />
<glyph unicode="&#xcf;" glyph-name="Idieresis" horiz-adv-x="292" d="M310 919H450L424 785H284L310 919ZM99 919H240L214 785H73L99 919ZM157 744H325L180 0H12L157 744Z" />
<glyph unicode="&#xd0;" glyph-name="Eth" horiz-adv-x="735" d="M45 443H101L160 744H436Q508 744 564 721T658 658T715 563T735 444Q735 344 708 262T629 122T502 32T330 0H15L76 313H20L45 443ZM333 139Q390 139 433 160T505 219T550 313T565 436Q565 513 529
559T410 606H301L269 443H438L413 313H244L210 139H333Z" />
<glyph unicode="&#xd1;" glyph-name="Ntilde" horiz-adv-x="739" d="M554 786Q531 786 513 793T480 808T452 823T428 830Q415 830 404 819T388 785H306Q314 856 348 891T425 926Q448 926 466 919T498 904T524 889T548 882Q579 882 588 924H671Q663 861 633 824T554
786ZM157 744H328L455 410Q466 381 477 346T497 279Q508 243 518 206H520Q525 247 530 287Q535 322 540 361T552 433L613 744H772L627 0H456L330 330Q319 359 307 395T286 463Q275 500 265 537H263Q259 495 254 455Q249 420 244 381T232 309L172 0H12L157 744Z"
/>
<glyph unicode="&#xd2;" glyph-name="Ograve" horiz-adv-x="784" d="M334 916H506L534 785H425L334 916ZM380 -18Q304 -18 243 6T138 75T72 180T48 315Q48 406 77 486T160 627T288 722T452 757Q528 757 588 733T692 665T758 560T781 426Q781 333 752 252T671 111T544
17T380 -18ZM384 118Q439 118 481 143T552 212T595 310T610 425Q610 470 599 506T567 569T515 609T443 624Q389 624 348 598T278 528T234 430T219 317Q219 273 229 237T260 174T312 133T384 118Z" />
<glyph unicode="&#xd3;" glyph-name="Oacute" horiz-adv-x="784" d="M459 916H641L513 785H398L459 916ZM380 -18Q304 -18 243 6T138 75T72 180T48 315Q48 406 77 486T160 627T288 722T452 757Q528 757 588 733T692 665T758 560T781 426Q781 333 752 252T671 111T544
17T380 -18ZM384 118Q439 118 481 143T552 212T595 310T610 425Q610 470 599 506T567 569T515 609T443 624Q389 624 348 598T278 528T234 430T219 317Q219 273 229 237T260 174T312 133T384 118Z" />
<glyph unicode="&#xd4;" glyph-name="Ocircumflex" horiz-adv-x="784" d="M415 916H565L649 785H523L486 849H484L426 785H286L415 916ZM380 -18Q304 -18 243 6T138 75T72 180T48 315Q48 406 77 486T160 627T288 722T452 757Q528 757 588 733T692 665T758 560T781
426Q781 333 752 252T671 111T544 17T380 -18ZM384 118Q439 118 481 143T552 212T595 310T610 425Q610 470 599 506T567 569T515 609T443 624Q389 624 348 598T278 528T234 430T219 317Q219 273 229 237T260 174T312 133T384 118Z" />
<glyph unicode="&#xd5;" glyph-name="Otilde" horiz-adv-x="784" d="M559 786Q536 786 518 793T485 808T457 823T433 830Q420 830 409 819T393 785H311Q319 856 353 891T430 926Q453 926 471 919T503 904T529 889T553 882Q584 882 593 924H676Q668 861 638 824T559
786ZM380 -18Q304 -18 243 6T138 75T72 180T48 315Q48 406 77 486T160 627T288 722T452 757Q528 757 588 733T692 665T758 560T781 426Q781 333 752 252T671 111T544 17T380 -18ZM384 118Q439 118 481 143T552 212T595 310T610 425Q610 470 599 506T567 569T515
609T443 624Q389 624 348 598T278 528T234 430T219 317Q219 273 229 237T260 174T312 133T384 118Z" />
<glyph unicode="&#xd6;" glyph-name="Odieresis" horiz-adv-x="784" d="M543 919H693L667 785H517L543 919ZM302 919H453L427 785H276L302 919ZM380 -18Q304 -18 243 6T138 75T72 180T48 315Q48 406 77 486T160 627T288 722T452 757Q528 757 588 733T692 665T758
560T781 426Q781 333 752 252T671 111T544 17T380 -18ZM384 118Q439 118 481 143T552 212T595 310T610 425Q610 470 599 506T567 569T515 609T443 624Q389 624 348 598T278 528T234 430T219 317Q219 273 229 237T260 174T312 133T384 118Z" />
<glyph unicode="&#xd7;" glyph-name="multiply" horiz-adv-x="594" d="M45 179L230 341L96 501L189 584L323 423L506 584L581 498L396 336L530 177L437 94L303 254L119 93L45 179Z" />
<glyph unicode="&#xd8;" glyph-name="Oslash" horiz-adv-x="784" d="M-5 7L105 115Q48 198 48 315Q48 406 77 486T160 627T288 722T452 757Q521 757 578 737T677 679L780 780L832 729L725 624Q752 583 766 534T781 426Q781 333 752 252T671 111T544 17T380 -18Q310
-18 253 2T153 60L46 -45L-5 7ZM219 317Q219 272 228 236L568 571Q547 597 516 610T443 624Q389 624 348 598T278 528T234 430T219 317ZM384 118Q439 118 481 143T552 212T595 310T610 425Q610 467 601 502L261 167Q281 144 311 131T384 118Z" />
<glyph unicode="&#xd9;" glyph-name="Ugrave" horiz-adv-x="710" d="M316 916H488L516 785H407L316 916ZM337 -14Q263 -14 206 5T111 61T61 153T61 280L152 744H318L225 265Q213 199 239 160T343 121Q405 121 442 154T491 251L587 744H754L656 239Q631 109 553
48T337 -14Z" />
<glyph unicode="&#xda;" glyph-name="Uacute" horiz-adv-x="710" d="M445 916H627L499 785H384L445 916ZM337 -14Q263 -14 206 5T111 61T61 153T61 280L152 744H318L225 265Q213 199 239 160T343 121Q405 121 442 154T491 251L587 744H754L656 239Q631 109 553
48T337 -14Z" />
<glyph unicode="&#xdb;" glyph-name="Ucircumflex" horiz-adv-x="710" d="M397 916H547L631 785H505L468 849H466L408 785H268L397 916ZM337 -14Q263 -14 206 5T111 61T61 153T61 280L152 744H318L225 265Q213 199 239 160T343 121Q405 121 442 154T491 251L587
744H754L656 239Q631 109 553 48T337 -14Z" />
<glyph unicode="&#xdc;" glyph-name="Udieresis" horiz-adv-x="710" d="M525 919H675L649 785H499L525 919ZM284 919H435L409 785H258L284 919ZM337 -14Q263 -14 206 5T111 61T61 153T61 280L152 744H318L225 265Q213 199 239 160T343 121Q405 121 442 154T491
251L587 744H754L656 239Q631 109 553 48T337 -14Z" />
<glyph unicode="&#xdd;" glyph-name="Yacute" horiz-adv-x="692" d="M432 916H614L486 785H371L432 916ZM265 278L107 744H283L331 588Q339 562 346 532T359 474Q366 442 372 411H374Q391 442 409 474Q424 501 443 531T479 588L589 744H772L433 282L378 0H211L265 278Z" />
<glyph unicode="&#xde;" glyph-name="Thorn" horiz-adv-x="678" d="M157 744H326L305 637H437Q504 637 550 619T625 568Q650 539 664 501T678 418Q678 354 658 305T600 221T511 169T395 151H210L181 0H12L157 744ZM277 495L236 284H381Q441 284 474 317T507 406Q507
445 484 470T414 495H277Z" />
<glyph unicode="&#xdf;" glyph-name="germandbls" horiz-adv-x="596" d="M316 -10Q287 -10 262 -6T222 4L241 115Q243 115 245 115T250 114Q259 112 268 111T289 110Q349 110 384 147T419 257Q419 311 391 341T313 372H293L310 462H318Q375 462 406 485T437 562Q437
597 417 618T358 640Q279 640 259 539L155 0H2L109 557Q128 651 191 703T362 756Q411 756 452 743T521 707T566 651T582 580Q582 456 456 416V413Q512 393 539 346T567 242Q567 179 547 132T493 53T413 6T316 -10Z" />
<glyph unicode="&#xe0;" glyph-name="agrave" horiz-adv-x="568" d="M169 -14Q94 -14 49 26T4 134Q4 183 22 214T72 265T149 293T248 308Q325 315 356 331T388 383Q388 409 368 426T309 444Q268 444 242 425T208 371H64Q79 451 143 499T314 547Q439 547 492 488T525
324L485 118Q475 68 478 44T491 9L490 0H344Q338 13 335 29T331 65H328Q301 29 262 8T169 -14ZM231 81Q283 81 313 111T352 186L367 258Q353 250 340 245T312 237T281 231T246 224Q199 215 178 197T156 144Q156 110 178 96T231 81ZM439 773H611L649 612H540L439
773Z" />
<glyph unicode="&#xe1;" glyph-name="aacute" horiz-adv-x="568" d="M169 -14Q94 -14 49 26T4 134Q4 183 22 214T72 265T149 293T248 308Q325 315 356 331T388 383Q388 409 368 426T309 444Q268 444 242 425T208 371H64Q79 451 143 499T314 547Q439 547 492 488T525
324L485 118Q475 68 478 44T491 9L490 0H344Q338 13 335 29T331 65H328Q301 29 262 8T169 -14ZM231 81Q283 81 313 111T352 186L367 258Q353 250 340 245T312 237T281 231T246 224Q199 215 178 197T156 144Q156 110 178 96T231 81ZM345 773H527L384 612H269L345
773Z" />
<glyph unicode="&#xe2;" glyph-name="acircumflex" horiz-adv-x="568" d="M169 -14Q94 -14 49 26T4 134Q4 183 22 214T72 265T149 293T248 308Q325 315 356 331T388 383Q388 409 368 426T309 444Q268 444 242 425T208 371H64Q79 451 143 499T314 547Q439 547 492
488T525 324L485 118Q475 68 478 44T491 9L490 0H344Q338 13 335 29T331 65H328Q301 29 262 8T169 -14ZM231 81Q283 81 313 111T352 186L367 258Q353 250 340 245T312 237T281 231T246 224Q199 215 178 197T156 144Q156 110 178 96T231 81ZM285 762H435L517 614H391L356
695H354L294 614H154L285 762Z" />
<glyph unicode="&#xe3;" glyph-name="atilde" horiz-adv-x="568" d="M169 -14Q94 -14 49 26T4 134Q4 183 22 214T72 265T149 293T248 308Q325 315 356 331T388 383Q388 409 368 426T309 444Q268 444 242 425T208 371H64Q79 451 143 499T314 547Q439 547 492 488T525
324L485 118Q475 68 478 44T491 9L490 0H344Q338 13 335 29T331 65H328Q301 29 262 8T169 -14ZM231 81Q283 81 313 111T352 186L367 258Q353 250 340 245T312 237T281 231T246 224Q199 215 178 197T156 144Q156 110 178 96T231 81ZM419 613Q396 613 378 620T345
635T317 650T293 657Q280 657 269 646T253 612H171Q179 683 213 718T290 753Q313 753 331 746T363 731T389 716T413 709Q444 709 453 751H536Q528 688 498 651T419 613Z" />
<glyph unicode="&#xe4;" glyph-name="adieresis" horiz-adv-x="568" d="M169 -14Q94 -14 49 26T4 134Q4 183 22 214T72 265T149 293T248 308Q325 315 356 331T388 383Q388 409 368 426T309 444Q268 444 242 425T208 371H64Q79 451 143 499T314 547Q439 547 492
488T525 324L485 118Q475 68 478 44T491 9L490 0H344Q338 13 335 29T331 65H328Q301 29 262 8T169 -14ZM231 81Q283 81 313 111T352 186L367 258Q353 250 340 245T312 237T281 231T246 224Q199 215 178 197T156 144Q156 110 178 96T231 81ZM412 745H557L530 607H385L412
745ZM174 745H319L292 607H147L174 745Z" />
<glyph unicode="&#xe5;" glyph-name="aring" horiz-adv-x="568" d="M169 -14Q94 -14 49 26T4 134Q4 183 22 214T72 265T149 293T248 308Q325 315 356 331T388 383Q388 409 368 426T309 444Q268 444 242 425T208 371H64Q79 451 143 499T314 547Q439 547 492 488T525
324L485 118Q475 68 478 44T491 9L490 0H344Q338 13 335 29T331 65H328Q301 29 262 8T169 -14ZM231 81Q283 81 313 111T352 186L367 258Q353 250 340 245T312 237T281 231T246 224Q199 215 178 197T156 144Q156 110 178 96T231 81ZM606 596Q583 596 563 604T527
627T502 662T493 706Q493 729 502 749T526 784T562 808T606 817Q629 817 649 808T685 784T709 749T718 706Q718 682 709 662T685 628T650 605T606 596ZM606 653Q629 653 643 668T658 706Q658 729 644 745T606 761Q583 761 569 745T554 706Q554 683 568 668T606
653Z" />
<glyph unicode="&#xe6;" glyph-name="ae" horiz-adv-x="913" d="M181 -14Q93 -14 48 26T2 133Q2 182 20 213T70 264T147 293T246 308Q323 315 354 331T386 383Q386 409 366 426T307 444Q266 444 240 425T206 371H62Q77 451 141 499T312 547Q376 547 417 531T482
483Q515 514 557 531T653 548Q711 548 755 529T829 476T874 396T889 297Q889 280 888 263T884 227H506V225Q506 163 533 129T616 94Q648 94 672 108T710 150H864Q832 71 766 28T608 -16Q534 -16 482 11T399 83Q373 51 345 32T289 3T233 -11T181 -14ZM229 81Q281
81 311 111T350 186L365 258Q351 250 338 245T310 237T279 231T244 224Q197 215 176 197T154 144Q154 110 176 96T229 81ZM650 439Q598 439 565 404T517 315H740Q746 372 723 405T650 439Z" />
<glyph unicode="&#xe7;" glyph-name="ccedilla" horiz-adv-x="567" d="M186 -209Q152 -209 126 -201T82 -179L102 -144Q134 -160 166 -160Q194 -160 210 -150T227 -120Q227 -107 218 -100T195 -93Q183 -93 174 -95T156 -100L143 -72L204 -11Q121 7 73 67T24 221Q24
291 45 350T106 453T201 522T323 547Q377 547 418 532T489 491T534 428T554 350H405Q400 387 380 410T319 433Q285 433 259 415T215 367T188 297T179 214Q179 157 203 127T273 97Q357 97 386 198H539Q516 89 446 36T272 -18H260L218 -53L219 -55Q261 -49 291 -65T322
-119Q322 -163 284 -186T186 -209Z" />
<glyph unicode="&#xe8;" glyph-name="egrave" horiz-adv-x="584" d="M277 -16Q215 -16 168 2T89 53T41 130T25 225Q25 293 47 352T108 454T202 523T322 548Q382 548 427 529T501 475T545 395T560 295Q560 278 559 261T555 227H171V225Q171 163 199 129T285 94Q317
94 342 108T381 150H535Q503 71 437 28T277 -16ZM319 439Q292 439 271 430T232 404T203 364T183 315H411Q418 372 394 405T319 439ZM438 773H610L648 612H539L438 773Z" />
<glyph unicode="&#xe9;" glyph-name="eacute" horiz-adv-x="584" d="M277 -16Q215 -16 168 2T89 53T41 130T25 225Q25 293 47 352T108 454T202 523T322 548Q382 548 427 529T501 475T545 395T560 295Q560 278 559 261T555 227H171V225Q171 163 199 129T285 94Q317
94 342 108T381 150H535Q503 71 437 28T277 -16ZM319 439Q292 439 271 430T232 404T203 364T183 315H411Q418 372 394 405T319 439ZM344 773H526L383 612H268L344 773Z" />
<glyph unicode="&#xea;" glyph-name="ecircumflex" horiz-adv-x="584" d="M277 -16Q215 -16 168 2T89 53T41 130T25 225Q25 293 47 352T108 454T202 523T322 548Q382 548 427 529T501 475T545 395T560 295Q560 278 559 261T555 227H171V225Q171 163 199 129T285
94Q317 94 342 108T381 150H535Q503 71 437 28T277 -16ZM319 439Q292 439 271 430T232 404T203 364T183 315H411Q418 372 394 405T319 439ZM284 762H434L516 614H390L355 695H353L293 614H153L284 762Z" />
<glyph unicode="&#xeb;" glyph-name="edieresis" horiz-adv-x="584" d="M277 -16Q215 -16 168 2T89 53T41 130T25 225Q25 293 47 352T108 454T202 523T322 548Q382 548 427 529T501 475T545 395T560 295Q560 278 559 261T555 227H171V225Q171 163 199 129T285
94Q317 94 342 108T381 150H535Q503 71 437 28T277 -16ZM319 439Q292 439 271 430T232 404T203 364T183 315H411Q418 372 394 405T319 439ZM411 745H556L529 607H384L411 745ZM173 745H318L291 607H146L173 745Z" />
<glyph unicode="&#xec;" glyph-name="igrave" horiz-adv-x="257" d="M105 532H258L155 0H1L105 532ZM40 773H212L250 612H141L40 773Z" />
<glyph unicode="&#xed;" glyph-name="iacute" horiz-adv-x="257" d="M105 532H258L155 0H1L105 532ZM202 773H384L241 612H126L202 773Z" />
<glyph unicode="&#xee;" glyph-name="icircumflex" horiz-adv-x="257" d="M105 532H258L155 0H1L105 532ZM142 762H292L374 614H248L213 695H211L151 614H11L142 762Z" />
<glyph unicode="&#xef;" glyph-name="idieresis" horiz-adv-x="257" d="M249 745H374L347 607H222L249 745ZM71 745H196L169 607H44L71 745ZM105 532H258L155 0H1L105 532Z" />
<glyph unicode="&#xf0;" glyph-name="eth" horiz-adv-x="605" d="M176 615L312 657Q290 680 268 700T226 737V744H407Q419 734 431 724T455 701L556 733L576 676L498 651Q540 595 567 523T594 363Q594 289 575 220T518 98T421 14T283 -18Q230 -18 183 -2T102 46T47
125T27 232Q27 299 48 355T107 450T194 512T300 534Q376 534 424 476H425Q414 511 396 543T354 606L196 556L176 615ZM286 92Q318 92 344 109T389 155T418 223T429 307Q429 368 401 400T323 432Q290 432 264 416T220 371T192 304T182 220Q182 159 208 126T286 92Z"
/>
<glyph unicode="&#xf1;" glyph-name="ntilde" horiz-adv-x="593" d="M103 532H251L234 446H237Q269 495 313 521T414 548Q455 548 486 531T535 484T560 415T558 330L493 0H340L402 319Q410 364 394 392T332 420Q288 420 256 388T212 301L153 0H0L103 532ZM439
613Q416 613 398 620T365 635T337 650T313 657Q300 657 289 646T273 612H191Q199 683 233 718T310 753Q333 753 351 746T383 731T409 716T433 709Q464 709 473 751H556Q548 688 518 651T439 613Z" />
<glyph unicode="&#xf2;" glyph-name="ograve" horiz-adv-x="604" d="M278 -17Q220 -17 173 1T93 53T43 132T25 232Q25 298 48 356T111 456T208 523T330 548Q387 548 433 530T513 478T565 400T583 301Q583 233 560 175T497 74T400 7T278 -17ZM283 93Q316 93 343
110T388 157T417 223T427 301Q427 367 400 403T324 439Q291 439 265 421T220 374T191 307T181 229Q181 164 207 129T283 93ZM207 773H379L417 612H308L207 773Z" />
<glyph unicode="&#xf3;" glyph-name="oacute" horiz-adv-x="604" d="M278 -17Q220 -17 173 1T93 53T43 132T25 232Q25 298 48 356T111 456T208 523T330 548Q387 548 433 530T513 478T565 400T583 301Q583 233 560 175T497 74T400 7T278 -17ZM283 93Q316 93 343
110T388 157T417 223T427 301Q427 367 400 403T324 439Q291 439 265 421T220 374T191 307T181 229Q181 164 207 129T283 93ZM369 773H551L408 612H293L369 773Z" />
<glyph unicode="&#xf4;" glyph-name="ocircumflex" horiz-adv-x="604" d="M278 -17Q220 -17 173 1T93 53T43 132T25 232Q25 298 48 356T111 456T208 523T330 548Q387 548 433 530T513 478T565 400T583 301Q583 233 560 175T497 74T400 7T278 -17ZM283 93Q316 93
343 110T388 157T417 223T427 301Q427 367 400 403T324 439Q291 439 265 421T220 374T191 307T181 229Q181 164 207 129T283 93ZM309 762H459L541 614H415L380 695H378L318 614H178L309 762Z" />
<glyph unicode="&#xf5;" glyph-name="otilde" horiz-adv-x="604" d="M278 -17Q220 -17 173 1T93 53T43 132T25 232Q25 298 48 356T111 456T208 523T330 548Q387 548 433 530T513 478T565 400T583 301Q583 233 560 175T497 74T400 7T278 -17ZM283 93Q316 93 343
110T388 157T417 223T427 301Q427 367 400 403T324 439Q291 439 265 421T220 374T191 307T181 229Q181 164 207 129T283 93ZM443 613Q420 613 402 620T369 635T341 650T317 657Q304 657 293 646T277 612H195Q203 683 237 718T314 753Q337 753 355 746T387 731T413
716T437 709Q468 709 477 751H560Q552 688 522 651T443 613Z" />
<glyph unicode="&#xf6;" glyph-name="odieresis" horiz-adv-x="604" d="M278 -17Q220 -17 173 1T93 53T43 132T25 232Q25 298 48 356T111 456T208 523T330 548Q387 548 433 530T513 478T565 400T583 301Q583 233 560 175T497 74T400 7T278 -17ZM283 93Q316 93
343 110T388 157T417 223T427 301Q427 367 400 403T324 439Q291 439 265 421T220 374T191 307T181 229Q181 164 207 129T283 93ZM436 745H581L554 607H409L436 745ZM198 745H343L316 607H171L198 745Z" />
<glyph unicode="&#xf7;" glyph-name="divide" horiz-adv-x="592" d="M286 624H449L420 477H258L286 624ZM87 404H563L539 281H63L87 404ZM205 207H368L339 60H177L205 207Z" />
<glyph unicode="&#xf8;" glyph-name="oslash" horiz-adv-x="604" d="M-19 -13L72 76Q24 141 24 232Q24 298 47 356T110 456T207 523T330 548Q381 548 423 533T497 492L582 575L624 531L539 447Q560 417 571 380T583 301Q583 233 560 175T497 74T400 7T277 -17Q228
-17 188 -4T115 33L23 -57L-19 -13ZM179 229Q179 203 182 184L404 401Q378 439 324 439Q291 439 264 421T218 374T189 307T179 229ZM283 93Q316 93 343 110T389 157T418 223T429 301Q429 320 426 338L208 124Q234 93 283 93Z" />
<glyph unicode="&#xf9;" glyph-name="ugrave" horiz-adv-x="589" d="M184 -16Q140 -16 108 0T57 46T33 115T36 203L99 532H253L190 208Q181 164 196 139T253 112Q302 111 333 141T376 226L435 532H589L485 0H337L351 73H349Q317 30 278 7T184 -16ZM200 773H372L410
612H301L200 773Z" />
<glyph unicode="&#xfa;" glyph-name="uacute" horiz-adv-x="589" d="M184 -16Q140 -16 108 0T57 46T33 115T36 203L99 532H253L190 208Q181 164 196 139T253 112Q302 111 333 141T376 226L435 532H589L485 0H337L351 73H349Q317 30 278 7T184 -16ZM362 773H544L401
612H286L362 773Z" />
<glyph unicode="&#xfb;" glyph-name="ucircumflex" horiz-adv-x="589" d="M184 -16Q140 -16 108 0T57 46T33 115T36 203L99 532H253L190 208Q181 164 196 139T253 112Q302 111 333 141T376 226L435 532H589L485 0H337L351 73H349Q317 30 278 7T184 -16ZM303 762H453L535
614H409L374 695H372L312 614H172L303 762Z" />
<glyph unicode="&#xfc;" glyph-name="udieresis" horiz-adv-x="589" d="M184 -16Q140 -16 108 0T57 46T33 115T36 203L99 532H253L190 208Q181 164 196 139T253 112Q302 111 333 141T376 226L435 532H589L485 0H337L351 73H349Q317 30 278 7T184 -16ZM429 745H574L547
607H402L429 745ZM191 745H336L309 607H164L191 745Z" />
<glyph unicode="&#xfd;" glyph-name="yacute" horiz-adv-x="547" d="M79 -178Q77 -178 62 -178T28 -178T-5 -177T-22 -176L1 -56H6Q6 -56 14 -56T31 -56T48 -57T58 -57Q94 -57 114 -42T143 0Q146 13 145 42T137 107L58 532H214L241 333Q245 304 247 271T252 208Q254
175 254 142H256Q268 173 280 206Q291 233 304 265T332 325L436 532H594L301 -13Q276 -59 253 -90T203 -141T147 -169T79 -178ZM345 773H527L384 612H269L345 773Z" />
<glyph unicode="&#xfe;" glyph-name="thorn" horiz-adv-x="609" d="M333 -18Q267 -18 226 9T168 79H165Q164 71 161 39T146 -47L121 -177H-32L147 744H300L268 581Q262 549 255 518T241 463H244Q274 503 314 525T407 548Q451 548 485 531T543 484T579 413T592
322Q592 248 573 186T519 78T437 8T333 -18ZM300 102Q330 102 355 119T397 164T425 231T435 312Q435 366 411 396T339 426Q306 426 280 409T236 365T208 301T198 228Q198 175 224 139T300 102Z" />
<glyph unicode="&#xff;" glyph-name="ydieresis" horiz-adv-x="547" d="M79 -178Q77 -178 62 -178T28 -178T-5 -177T-22 -176L1 -56H6Q6 -56 14 -56T31 -56T48 -57T58 -57Q94 -57 114 -42T143 0Q146 13 145 42T137 107L58 532H214L241 333Q245 304 247 271T252
208Q254 175 254 142H256Q268 173 280 206Q291 233 304 265T332 325L436 532H594L301 -13Q276 -59 253 -90T203 -141T147 -169T79 -178ZM412 745H557L530 607H385L412 745ZM174 745H319L292 607H147L174 745Z" />
<glyph unicode="&#x131;" glyph-name="dotlessi" horiz-adv-x="257" d="M105 532H258L155 0H1L105 532Z" />
<glyph unicode="&#x141;" glyph-name="Lslash" horiz-adv-x="599" d="M16 319L86 350L163 744H330L269 431L495 532L472 419L247 319L213 143H548L520 0H18L64 237L-6 206L16 319Z" />
<glyph unicode="&#x142;" glyph-name="lslash" horiz-adv-x="309" d="M21 326L98 373L171 744H326L274 481L357 531L334 418L252 368L181 0H26L76 260L0 213L21 326Z" />
<glyph unicode="&#x152;" glyph-name="OE" horiz-adv-x="1124" d="M344 -18Q276 -18 223 7T132 76T76 181T56 313Q56 410 86 491T168 632T292 724T445 757Q515 757 564 733T643 664L658 744H1166L1138 604H784L754 451H1057L1031 320H728L695 147H1061L1032 0H526L538
69Q498 27 450 5T344 -18ZM383 116Q452 116 500 160T568 282Q571 295 575 315T582 359T587 405T590 444Q592 531 555 576T445 622Q395 622 355 598T287 531T243 434T228 316Q228 222 265 169T383 116Z" />
<glyph unicode="&#x153;" glyph-name="oe" horiz-adv-x="974" d="M670 -16Q601 -16 554 7T478 72Q442 30 391 7T275 -17Q218 -17 172 1T93 53T43 132T25 232Q25 298 48 356T111 456T207 523T327 548Q392 548 438 524T514 456Q550 499 600 523T715 548Q775 548
819 528T893 474T936 392T950 290Q949 274 948 259T944 227H567V225Q567 163 594 129T678 94Q743 94 771 150H925Q893 71 827 28T670 -16ZM280 93Q312 93 338 110T382 157T411 223T421 301Q421 367 395 403T321 439Q288 439 262 421T218 374T191 307T181 229Q181
164 206 129T280 93ZM712 439Q660 439 627 404T578 315H801Q807 372 784 405T712 439Z" />
<glyph unicode="&#x160;" glyph-name="Scaron" horiz-adv-x="671" d="M483 785H333L249 916H375L412 852H414L472 916H612L483 785ZM336 -18Q181 -18 98 49T11 235H181Q189 176 225 146T337 115Q393 115 428 139T464 207Q464 227 455 241T426 267T378 290T314
313Q267 329 227 346T156 388T109 445T91 527Q91 578 110 620T165 693T256 740T380 757Q509 757 582 699T664 535H500Q495 578 463 604T374 631Q320 631 290 609T259 551Q259 533 268 519T298 493T349 470T420 445Q463 431 502 413T572 370T619 310T637 226Q637
173 616 128T556 51T462 0T336 -18Z" />
<glyph unicode="&#x161;" glyph-name="scaron" horiz-adv-x="531" d="M251 -17Q133 -17 67 31T-2 164H144Q148 125 175 104T249 83Q290 83 312 100T334 147Q334 162 325 173T300 192T262 206T212 220Q181 229 152 240T101 268T65 311T51 373Q51 415 67 447T114
502T185 536T275 548Q384 548 440 506T507 390H362Q357 419 335 434T274 450Q239 450 218 435T197 394Q197 380 205 371T229 355T267 342T317 328Q348 320 378 309T431 279T470 234T485 168Q485 123 468 89T420 31T346 -5T251 -17ZM398 760H524L563 679H565L621
760H761L630 612H480L398 760Z" />
<glyph unicode="&#x178;" glyph-name="Ydieresis" horiz-adv-x="692" d="M515 919H665L639 785H489L515 919ZM274 919H425L399 785H248L274 919ZM265 278L107 744H283L331 588Q339 562 346 532T359 474Q366 442 372 411H374Q391 442 409 474Q424 501 443 531T479
588L589 744H772L433 282L378 0H211L265 278Z" />
<glyph unicode="&#x17d;" glyph-name="Zcaron" horiz-adv-x="673" d="M512 785H362L278 916H404L441 852H443L501 916H641L512 785ZM12 135L346 473Q366 493 391 516T440 559Q466 582 493 605L494 608Q466 606 438 605Q414 604 387 604T339 603H129L157 744H716L690
613L368 286Q345 263 318 238T265 190Q236 164 206 140V137Q235 138 265 140Q290 141 318 142T370 143H613L585 0H-15L12 135Z" />
<glyph unicode="&#x17e;" glyph-name="zcaron" horiz-adv-x="528" d="M6 114L233 332Q248 346 266 361T300 389Q318 404 337 418V421Q317 419 297 417Q280 415 260 415T224 414H88L111 532H533L513 422L293 211Q276 195 257 179T219 148Q198 131 177 116L176 112Q197
114 219 116Q238 118 259 119T299 120H468L444 0H-16L6 114ZM429 760H555L594 679H596L652 760H792L661 612H511L429 760Z" />
<glyph unicode="&#x192;" glyph-name="florin" horiz-adv-x="451" d="M71 432H168L200 574Q209 614 225 644T268 695Q287 709 312 716T366 726T424 728T483 721L467 612Q415 616 389 607T354 555L326 432H442L423 334H304L227 -14Q218 -54 204 -83T166 -132Q148
-146 124 -153T74 -162T21 -162T-27 -157L-11 -56Q25 -59 44 -49T73 2L146 334H52L71 432Z" />
<glyph unicode="&#x2c6;" glyph-name="circumflex" horiz-adv-x="528" d="M283 762H433L515 614H389L354 695H352L292 614H152L283 762Z" />
<glyph unicode="&#x2c7;" glyph-name="caron" horiz-adv-x="528" d="M180 760H306L345 679H347L403 760H543L412 612H262L180 760Z" />
<glyph unicode="&#x2d8;" glyph-name="breve" horiz-adv-x="528" d="M374 606Q305 606 265 647T232 761H319Q318 734 333 717T381 700Q416 700 435 716T462 761H552Q538 689 494 648T374 606Z" />
<glyph unicode="&#x2d9;" glyph-name="dotaccent" horiz-adv-x="528" d="M281 744H437L410 607H254L281 744Z" />
<glyph unicode="&#x2da;" glyph-name="ring" horiz-adv-x="530" d="M353 596Q330 596 310 604T274 627T249 662T240 706Q240 729 249 749T273 784T309 808T353 817Q376 817 396 808T432 784T456 749T465 706Q465 682 456 662T432 628T397 605T353 596ZM353 653Q376
653 390 668T405 706Q405 729 391 745T353 761Q330 761 316 745T301 706Q301 683 315 668T353 653Z" />
<glyph unicode="&#x2db;" glyph-name="ogonek" horiz-adv-x="528" d="M145 -184Q92 -184 63 -163T33 -101Q33 -80 41 -64T63 -35T92 -15T121 0H223Q194 -18 177 -36T160 -74Q160 -88 169 -94T193 -100Q202 -100 209 -99T223 -96H225L209 -176Q200 -179 183 -181T145
-184Z" />
<glyph unicode="&#x2dc;" glyph-name="tilde" horiz-adv-x="528" d="M412 613Q389 613 371 620T338 635T310 650T286 657Q273 657 262 646T246 612H164Q172 683 206 718T283 753Q306 753 324 746T356 731T382 716T406 709Q437 709 446 751H529Q521 688 491 651T412 613Z" />
<glyph unicode="&#x2dd;" glyph-name="hungarumlaut" horiz-adv-x="528" d="M440 773H583L468 612H371L440 773ZM250 773H395L278 612H181L250 773Z" />
</font>
</defs>
</svg>
